<svg width="100" height="100" viewBox="0 0 100 100" fill="none" xmlns="http://www.w3.org/2000/svg">
<path d="M87.5 31.25H62.5V25H87.5V31.25ZM9.375 12.5C4.19922 12.5 0 16.6992 0 21.875V34.375C0 39.5508 4.19922 43.75 9.375 43.75H90.625C95.8008 43.75 100 39.5508 100 34.375V21.875C100 16.6992 95.8008 12.5 90.625 12.5H9.375ZM87.5 68.75V75H37.5V68.75H87.5ZM9.375 56.25C4.19922 56.25 0 60.4492 0 65.625V78.125C0 83.3008 4.19922 87.5 9.375 87.5H90.625C95.8008 87.5 100 83.3008 100 78.125V65.625C100 60.4492 95.8008 56.25 90.625 56.25H9.375Z" fill="#333333"/>
</svg>
