<svg width="88" height="100" viewBox="0 0 88 100" fill="none" xmlns="http://www.w3.org/2000/svg">
<g clip-path="url(#clip0_20_98)">
<path d="M68.2422 8.71093C69.3946 6.03515 68.5352 2.91015 66.1719 1.1914C63.8086 -0.527347 60.586 -0.371097 58.3789 1.54297L8.37895 45.293C6.42582 47.0117 5.7227 49.7656 6.64066 52.1875C7.55863 54.6094 9.90238 56.25 12.5 56.25H34.2774L19.2579 91.2891C18.1055 93.9648 18.9649 97.0898 21.3282 98.8086C23.6914 100.527 26.9141 100.371 29.1211 98.457L79.1211 54.707C81.0743 52.9883 81.7774 50.2344 80.8594 47.8125C79.9414 45.3906 77.6172 43.7695 75 43.7695H53.2227L68.2422 8.71093Z" fill="#333333"/>
</g>
<defs>
<clipPath id="clip0_20_98">
<rect width="87.5" height="100" fill="white"/>
</clipPath>
</defs>
</svg>
