<svg width="100" height="100" viewBox="0 0 100 100" fill="none" xmlns="http://www.w3.org/2000/svg">
<g clip-path="url(#clip0_19_82)">
<path d="M47.5392 0.507721L3.7892 19.2577C1.05483 20.4296 -0.468608 23.3593 0.136861 26.2499C0.74233 29.1405 3.28139 31.2499 6.25014 31.2499V32.8124C6.25014 35.4101 8.33999 37.4999 10.9376 37.4999H89.0626C91.6603 37.4999 93.7501 35.4101 93.7501 32.8124V31.2499C96.7189 31.2499 99.2775 29.1601 99.8634 26.2499C100.449 23.3398 98.9259 20.4101 96.2111 19.2577L52.4611 0.507721C50.8986 -0.156342 49.1017 -0.156342 47.5392 0.507721ZM25.0001 43.7499H12.5001V82.0898C12.383 82.1483 12.2658 82.2265 12.1486 82.3046L2.77358 88.5546C0.488424 90.078 -0.546733 92.9296 0.254049 95.5663C1.05483 98.203 3.49624 99.9999 6.25014 99.9999H93.7501C96.5041 99.9999 98.9259 98.203 99.7267 95.5663C100.527 92.9296 99.5119 90.078 97.2072 88.5546L87.8322 82.3046C87.715 82.2265 87.5978 82.1679 87.4806 82.0898V43.7499H75.0001V81.2499H67.1876V43.7499H54.6876V81.2499H45.3126V43.7499H32.8126V81.2499H25.0001V43.7499ZM50.0001 12.4999C51.6577 12.4999 53.2475 13.1584 54.4196 14.3305C55.5917 15.5026 56.2501 17.0923 56.2501 18.7499C56.2501 20.4075 55.5917 21.9972 54.4196 23.1693C53.2475 24.3414 51.6577 24.9999 50.0001 24.9999C48.3425 24.9999 46.7528 24.3414 45.5807 23.1693C44.4086 21.9972 43.7501 20.4075 43.7501 18.7499C43.7501 17.0923 44.4086 15.5026 45.5807 14.3305C46.7528 13.1584 48.3425 12.4999 50.0001 12.4999Z" fill="#333333"/>
</g>
<defs>
<clipPath id="clip0_19_82">
<rect width="100" height="100" fill="white"/>
</clipPath>
</defs>
</svg>
