<svg width="100" height="80" viewBox="0 0 100 80" fill="none" xmlns="http://www.w3.org/2000/svg">
<g clip-path="url(#clip0_19_87)">
<path d="M28.75 7.5H51.25C51.9375 7.5 52.5 8.0625 52.5 8.75V15H27.5V8.75C27.5 8.0625 28.0625 7.5 28.75 7.5ZM20 8.75V15H10C4.48438 15 0 19.4844 0 25V40H30H55H56.2813C61.3281 33.8906 68.9531 30 77.5 30C78.3438 30 79.1719 30.0312 80 30.1094V25C80 19.4844 75.5156 15 70 15H60V8.75C60 3.92188 56.0781 0 51.25 0H28.75C23.9219 0 20 3.92188 20 8.75ZM50 55H35C32.2344 55 30 52.7656 30 50V45H0V65C0 70.5156 4.48438 75 10 75H56.2813C52.3594 70.25 50 64.1406 50 57.5C50 56.6562 50.0313 55.8281 50.1094 55H50ZM100 57.5C100 51.5326 97.6295 45.8097 93.4099 41.5901C89.1903 37.3705 83.4674 35 77.5 35C71.5326 35 65.8097 37.3705 61.5901 41.5901C57.3705 45.8097 55 51.5326 55 57.5C55 63.4674 57.3705 69.1903 61.5901 73.4099C65.8097 77.6295 71.5326 80 77.5 80C83.4674 80 89.1903 77.6295 93.4099 73.4099C97.6295 69.1903 100 63.4674 100 57.5ZM77.5 45C78.875 45 80 46.125 80 47.5V55H85C86.375 55 87.5 56.125 87.5 57.5C87.5 58.875 86.375 60 85 60H77.5C76.125 60 75 58.875 75 57.5V47.5C75 46.125 76.125 45 77.5 45Z" fill="#333333"/>
</g>
<defs>
<clipPath id="clip0_19_87">
<rect width="100" height="80" fill="white"/>
</clipPath>
</defs>
</svg>
