<svg width="100" height="89" viewBox="0 0 100 89" fill="none" xmlns="http://www.w3.org/2000/svg">
<g clip-path="url(#clip0_20_100)">
<path d="M11.1111 0C4.98264 0 0 4.98264 0 11.1111V61.1111C0 67.2396 4.98264 72.2222 11.1111 72.2222H41.6667L39.809 77.7778H27.7778C24.7049 77.7778 22.2222 80.2604 22.2222 83.3333C22.2222 86.4062 24.7049 88.8889 27.7778 88.8889H72.2222C75.2951 88.8889 77.7778 86.4062 77.7778 83.3333C77.7778 80.2604 75.2951 77.7778 72.2222 77.7778H60.191L58.3333 72.2222H88.8889C95.0174 72.2222 100 67.2396 100 61.1111V11.1111C100 4.98264 95.0174 0 88.8889 0H11.1111ZM88.8889 11.1111V50H11.1111V11.1111H88.8889Z" fill="#333333"/>
</g>
<defs>
<clipPath id="clip0_20_100">
<rect width="100" height="88.8889" fill="white"/>
</clipPath>
</defs>
</svg>
