<svg width="100" height="80" viewBox="0 0 100 80" fill="none" xmlns="http://www.w3.org/2000/svg">
<g clip-path="url(#clip0_20_96)">
<path d="M30 7.5C30 3.35938 33.3594 0 37.5 0H62.5C66.6406 0 70 3.35938 70 7.5V80H57.5V67.5C57.5 63.3594 54.1406 60 50 60C45.8594 60 42.5 63.3594 42.5 67.5V80H30V7.5ZM7.5 15H25V80H7.5C3.35938 80 0 76.6406 0 72.5V50H12.5C13.875 50 15 48.875 15 47.5C15 46.125 13.875 45 12.5 45H0V35H12.5C13.875 35 15 33.875 15 32.5C15 31.125 13.875 30 12.5 30H0V22.5C0 18.3594 3.35938 15 7.5 15ZM92.5 15C96.6406 15 100 18.3594 100 22.5V30H87.5C86.125 30 85 31.125 85 32.5C85 33.875 86.125 35 87.5 35H100V45H87.5C86.125 45 85 46.125 85 47.5C85 48.875 86.125 50 87.5 50H100V72.5C100 76.6406 96.6406 80 92.5 80H75V15H92.5ZM48.75 10C47.375 10 46.25 11.125 46.25 12.5V16.25H42.5C41.125 16.25 40 17.375 40 18.75V21.25C40 22.625 41.125 23.75 42.5 23.75H46.25V27.5C46.25 28.875 47.375 30 48.75 30H51.25C52.625 30 53.75 28.875 53.75 27.5V23.75H57.5C58.875 23.75 60 22.625 60 21.25V18.75C60 17.375 58.875 16.25 57.5 16.25H53.75V12.5C53.75 11.125 52.625 10 51.25 10H48.75Z" fill="#333333"/>
</g>
<defs>
<clipPath id="clip0_20_96">
<rect width="100" height="80" fill="white"/>
</clipPath>
</defs>
</svg>
