<svg width="100" height="100" viewBox="0 0 100 100" fill="none" xmlns="http://www.w3.org/2000/svg">
<g clip-path="url(#clip0_20_104)">
<path d="M81.25 40.625C81.25 49.5898 78.3398 57.8711 73.4375 64.5898L98.1641 89.3359C100.605 91.7773 100.605 95.7422 98.1641 98.1836C95.7227 100.625 91.7578 100.625 89.3164 98.1836L64.5898 73.4375C57.8711 78.3594 49.5898 81.25 40.625 81.25C18.1836 81.25 0 63.0664 0 40.625C0 18.1836 18.1836 0 40.625 0C63.0664 0 81.25 18.1836 81.25 40.625ZM20.3125 42.1875V54.6875C20.3125 57.2852 22.4023 59.375 25 59.375C27.5977 59.375 29.6875 57.2852 29.6875 54.6875V42.1875C29.6875 39.5898 27.5977 37.5 25 37.5C22.4023 37.5 20.3125 39.5898 20.3125 42.1875ZM35.9375 23.4375V54.6875C35.9375 57.2852 38.0273 59.375 40.625 59.375C43.2227 59.375 45.3125 57.2852 45.3125 54.6875V23.4375C45.3125 20.8398 43.2227 18.75 40.625 18.75C38.0273 18.75 35.9375 20.8398 35.9375 23.4375ZM51.5625 35.9375V54.6875C51.5625 57.2852 53.6523 59.375 56.25 59.375C58.8477 59.375 60.9375 57.2852 60.9375 54.6875V35.9375C60.9375 33.3398 58.8477 31.25 56.25 31.25C53.6523 31.25 51.5625 33.3398 51.5625 35.9375Z" fill="#333333"/>
</g>
<defs>
<clipPath id="clip0_20_104">
<rect width="100" height="100" fill="white"/>
</clipPath>
</defs>
</svg>
