<svg width="300" height="300" viewBox="0 0 300 300" fill="none" xmlns="http://www.w3.org/2000/svg">
<rect width="300" height="300" fill="#E1E1E1"/>
<path d="M141.919 169.455V168.943C141.976 163.517 142.544 159.199 143.624 155.989C144.703 152.778 146.238 150.179 148.226 148.19C150.215 146.202 152.601 144.369 155.385 142.693C157.061 141.67 158.567 140.463 159.902 139.071C161.238 137.651 162.289 136.017 163.056 134.17C163.851 132.324 164.249 130.278 164.249 128.034C164.249 125.25 163.596 122.835 162.289 120.79C160.982 118.744 159.235 117.168 157.047 116.06C154.86 114.952 152.431 114.398 149.76 114.398C147.431 114.398 145.186 114.881 143.027 115.847C140.868 116.812 139.064 118.332 137.615 120.406C136.167 122.48 135.328 125.193 135.101 128.545H124.363C124.59 123.716 125.84 119.582 128.113 116.145C130.414 112.707 133.439 110.08 137.189 108.261C140.968 106.443 145.158 105.534 149.76 105.534C154.76 105.534 159.107 106.528 162.8 108.517C166.522 110.506 169.391 113.233 171.408 116.699C173.453 120.165 174.476 124.114 174.476 128.545C174.476 131.67 173.993 134.497 173.027 137.026C172.09 139.554 170.726 141.812 168.936 143.801C167.175 145.79 165.044 147.551 162.544 149.085C160.044 150.648 158.042 152.295 156.536 154.028C155.03 155.733 153.936 157.764 153.255 160.122C152.573 162.48 152.203 165.42 152.147 168.943V169.455H141.919ZM147.374 194.682C145.272 194.682 143.468 193.929 141.962 192.423C140.456 190.918 139.703 189.114 139.703 187.011C139.703 184.909 140.456 183.105 141.962 181.599C143.468 180.094 145.272 179.341 147.374 179.341C149.476 179.341 151.28 180.094 152.786 181.599C154.292 183.105 155.044 184.909 155.044 187.011C155.044 188.403 154.689 189.682 153.979 190.847C153.297 192.011 152.374 192.949 151.209 193.659C150.073 194.341 148.794 194.682 147.374 194.682Z" fill="black"/>
</svg>
