<svg width="200" height="200" viewBox="0 0 200 200" fill="none" xmlns="http://www.w3.org/2000/svg">
<g clip-path="url(#clip0_57_4)">
<mask id="mask0_57_4" style="mask-type:luminance" maskUnits="userSpaceOnUse" x="0" y="0" width="200" height="200">
<path d="M200 100C200 44.7715 155.228 0 100 0C44.7715 0 0 44.7715 0 100C0 155.228 44.7715 200 100 200C155.228 200 200 155.228 200 100Z" fill="white"/>
</mask>
<g mask="url(#mask0_57_4)">
<path d="M90.7663 195.799L90.8343 194.478L95.6405 194.726L96.0963 185.878L97.6305 185.957L97.1066 196.126L90.7663 195.799Z" fill="#3A5FCD"/>
<path d="M79.6645 188.941C79.8398 187.868 80.1867 186.978 80.7054 186.27C81.2235 185.566 81.8583 185.062 82.6098 184.758C83.3575 184.457 84.1648 184.377 85.0316 184.519C85.9017 184.661 86.6449 184.994 87.2612 185.518C87.8737 186.044 88.3131 186.726 88.5796 187.562C88.846 188.398 88.8918 189.351 88.717 190.42C88.5418 191.493 88.1951 192.382 87.677 193.086C87.1583 193.794 86.5251 194.299 85.7774 194.6C85.0259 194.903 84.2151 194.984 83.345 194.842C82.4782 194.7 81.7385 194.366 81.126 193.84C80.5097 193.316 80.0684 192.636 79.802 191.8C79.535 190.967 79.4892 190.014 79.6645 188.941ZM81.1659 189.187C81.0323 190.004 81.0523 190.715 81.2258 191.317C81.3956 191.923 81.6859 192.407 82.0969 192.769C82.504 193.135 82.9954 193.364 83.5711 193.458C84.15 193.553 84.6907 193.492 85.1929 193.275C85.6946 193.062 86.1239 192.695 86.4807 192.176C86.8338 191.659 87.0771 190.992 87.2107 190.174C87.3443 189.356 87.3262 188.645 87.1565 188.04C86.9829 187.437 86.6926 186.953 86.2855 186.587C85.8778 186.225 85.3845 185.997 84.8055 185.902C84.2298 185.808 83.6911 185.868 83.1894 186.082C82.6839 186.298 82.2546 186.664 81.9016 187.181C81.5447 187.7 81.2995 188.369 81.1659 189.187Z" fill="#3A5FCD"/>
<path d="M78.8642 183.359L76.0963 193.158L72.6037 192.171C71.8414 191.956 71.249 191.639 70.8266 191.22C70.4043 190.801 70.1367 190.315 70.024 189.763C69.9103 189.215 69.9382 188.64 70.1076 188.041C70.2779 187.438 70.5571 186.931 70.9451 186.521C71.329 186.113 71.8126 185.839 72.3959 185.701C72.975 185.565 73.6442 185.604 74.4033 185.819L76.805 186.497L76.4509 187.751L74.1831 187.11C73.7015 186.974 73.2874 186.947 72.9407 187.028C72.5931 187.112 72.3082 187.28 72.0858 187.53C71.8635 187.781 71.7001 188.091 71.5956 188.461C71.491 188.831 71.4684 189.179 71.5277 189.506C71.5869 189.833 71.7451 190.12 72.0021 190.369C72.256 190.616 72.6285 190.809 73.1197 190.948L74.976 191.472L77.3858 182.942L78.8642 183.359Z" fill="#3A5FCD"/>
<path d="M67.4526 189.109L66.9621 190.337L59.6441 187.415L60.1346 186.187L63.0849 187.365L66.3707 179.137L67.7927 179.705L64.5069 187.933L67.4526 189.109Z" fill="#3A5FCD"/>
<path d="M61.2551 176.759L62.6958 177.523L54.6891 184.802L53.121 183.971L54.6534 173.259L56.0941 174.023L54.734 182.733L54.8043 182.77L61.2551 176.759ZM59.1458 180.154L54.4723 177.676L55.0778 176.534L59.7513 179.012L59.1458 180.154Z" fill="#3A5FCD"/>
<path d="M47.9742 180.917L46.7219 180.053L50.9673 173.898L50.8896 173.844L42.3797 177.058L41.2093 176.251L46.9903 167.869L48.2549 168.741L44.0151 174.888L44.0928 174.942L52.5889 171.731L53.7552 172.535L47.9742 180.917ZM42.3197 180.157L41.313 179.463C41.631 179.001 42.0535 178.739 42.5803 178.676C43.1026 178.613 43.6407 178.773 44.1945 179.155C44.7456 179.535 45.0848 179.98 45.2118 180.491C45.337 181.004 45.2406 181.491 44.9226 181.952L43.9199 181.261C44.0611 181.056 44.1262 180.833 44.1153 180.592C44.1025 180.354 43.9501 180.134 43.6582 179.933C43.3717 179.735 43.1135 179.672 42.8834 179.743C42.6507 179.811 42.4628 179.95 42.3197 180.157Z" fill="#3A5FCD"/>
<path d="M39.8033 173.323L38.9341 174.32L32.9952 169.14L33.8644 168.144L36.2587 170.232L42.0816 163.555L43.2356 164.561L37.4127 171.238L39.8033 173.323Z" fill="#3A5FCD"/>
<path d="M38.6144 160.219L31.1775 167.173L26.8175 162.51L27.7834 161.607L31.0942 165.148L33.3601 163.029L30.2768 159.732L31.2391 158.832L34.3224 162.129L36.5992 160L33.2477 156.416L34.2136 155.512L38.6144 160.219Z" fill="#3A5FCD"/>
<path d="M32.1563 148.842L29.003 150.897L28.6367 150.334C28.3508 150.248 28.005 150.218 27.5993 150.245C27.1936 150.272 26.7 150.392 26.1186 150.604C25.5372 150.817 24.8363 151.159 24.0159 151.63L20.2825 153.778L16.8548 148.517L24.2943 143.67L23.6647 142.703L26.8054 140.657L27.6087 141.89L25.5593 143.225L29.2911 148.953L31.353 147.609L32.1563 148.842ZM27.6488 148.818L25.0976 144.903L18.7661 149.028L20.6306 151.889L23.2126 150.397C23.8387 150.041 24.4191 149.747 24.9538 149.518C25.4867 149.285 25.9794 149.113 26.432 149C26.88 148.886 27.2856 148.825 27.6488 148.818Z" fill="#3A5FCD"/>
<path d="M23.7828 139.802L24.5084 141.263L13.7598 142.512L12.97 140.923L20.4576 133.111L21.1832 134.571L15.0023 140.857L15.0377 140.928L23.7828 139.802ZM20.0904 141.332L17.7365 136.595L18.894 136.019L21.248 140.756L20.0904 141.332Z" fill="#3A5FCD"/>
<path d="M20.4153 132.706L19.1627 133.161L19.0517 132.883C18.9046 132.507 18.6668 132.254 18.3384 132.127C18.009 131.996 17.5488 131.981 16.958 132.082C16.3661 132.181 15.6012 132.381 14.6634 132.682L10.1078 134.148L7.91339 128.096L17.4855 124.625L18.0024 126.051L9.65478 129.077L10.8392 132.344L14.5485 131.169C15.5883 130.838 16.4871 130.628 17.245 130.54C17.9997 130.453 18.6264 130.543 19.1251 130.81C19.6226 131.074 20.003 131.569 20.2662 132.295L20.4153 132.706Z" fill="#3A5FCD"/>
<path d="M6.75409 123.472L16.5997 120.877L16.9912 122.363L7.1456 124.957L6.75409 123.472Z" fill="#3A5FCD"/>
<path d="M12.6578 109.318C12.7027 109.717 12.6466 110.092 12.4895 110.443C12.329 110.795 12.0953 111.088 11.7882 111.323C11.4808 111.554 11.1278 111.692 10.7293 111.737C10.3275 111.783 9.95261 111.727 9.60463 111.569C9.25299 111.409 8.96143 111.175 8.72996 110.867C8.49519 110.56 8.35533 110.207 8.31037 109.809C8.26503 109.407 8.32278 109.032 8.48361 108.684C8.64077 108.332 8.87306 108.041 9.18049 107.809C9.48425 107.575 9.83703 107.435 10.2388 107.39C10.6373 107.345 11.0124 107.403 11.3641 107.563C11.7153 107.72 12.0084 107.952 12.2431 108.259C12.4742 108.564 12.6124 108.917 12.6578 109.318Z" fill="#3A5FCD"/>
<path d="M4.18986 90.8667L5.51062 90.9334L5.26795 95.7398L14.1161 96.1865L14.0386 97.7208L3.86972 97.2074L4.18986 90.8667Z" fill="#3A5FCD"/>
<path d="M11.036 79.7579C12.1091 79.932 12.9998 80.2781 13.7082 80.796C14.4133 81.3134 14.9181 81.9477 15.2226 82.6989C15.5244 83.4463 15.6049 84.2535 15.4642 85.1204C15.3229 85.9907 14.9907 86.7342 14.4675 87.3511C13.9415 87.9641 13.2606 88.4043 12.4248 88.6715C11.589 88.9388 10.6362 88.9856 9.56638 88.812C8.4933 88.6378 7.60422 88.292 6.89912 87.7746C6.19075 87.2567 5.68568 86.6241 5.38392 85.8767C5.07941 85.1255 4.99779 84.3147 5.13904 83.4445C5.27976 82.5775 5.6131 81.8375 6.13904 81.2245C6.66225 80.6076 7.34176 80.1656 8.17757 79.8983C9.01012 79.6305 9.96293 79.5837 11.036 79.7579ZM10.7923 81.2595C9.97437 81.1268 9.26419 81.1475 8.66174 81.3217C8.05655 81.4921 7.57283 81.7829 7.21059 82.1942C6.8456 82.6017 6.61638 83.0933 6.52292 83.6691C6.42893 84.2482 6.49061 84.7887 6.70797 85.2907C6.92205 85.7922 7.28894 86.2211 7.80864 86.5775C8.3256 86.93 8.99303 87.1726 9.81092 87.3054C10.6288 87.4382 11.3404 87.4193 11.9456 87.249C12.548 87.0748 13.0317 86.7839 13.3967 86.3764C13.7584 85.9684 13.9863 85.4749 14.0803 84.8958C14.1737 84.32 14.1134 83.7814 13.8993 83.2799C13.6825 82.7746 13.3156 82.3457 12.7987 81.9932C12.279 81.6368 11.6102 81.3923 10.7923 81.2595Z" fill="#3A5FCD"/>
<path d="M16.6172 78.9518L6.81601 76.194L7.79903 72.7004C8.01359 71.9379 8.33013 71.3452 8.74864 70.9224C9.16716 70.4996 9.65231 70.2315 10.2041 70.1182C10.7527 70.004 11.3269 70.0313 11.9267 70.2001C12.5297 70.3698 13.0367 70.6484 13.4475 71.036C13.8561 71.4195 14.1298 71.9028 14.2687 72.4859C14.4053 73.065 14.3668 73.7341 14.1532 74.4935L13.4772 76.8959L12.2233 76.5431L12.8616 74.2747C12.9972 73.7929 13.0242 73.3787 12.9427 73.0321C12.8579 72.6846 12.6902 72.3999 12.4393 72.1778C12.1885 71.9557 11.878 71.7926 11.5079 71.6885C11.1378 71.5843 10.7895 71.5621 10.4628 71.6216C10.1362 71.6812 9.84885 71.8397 9.60085 72.097C9.35374 72.3511 9.16107 72.7238 9.02282 73.2152L8.50034 75.072L17.0333 77.473L16.6172 78.9518Z" fill="#3A5FCD"/>
<path d="M10.8555 67.5461L9.62686 67.0569L12.5419 59.736L13.7706 60.2252L12.5953 63.1767L20.8262 66.454L20.2598 67.8766L12.0289 64.5993L10.8555 67.5461Z" fill="#3A5FCD"/>
<path d="M23.1992 61.336L22.4368 62.7775L15.1494 54.7782L15.9792 53.2094L26.6927 54.7308L25.9303 56.1722L17.2189 54.8211L17.1817 54.8914L23.1992 61.336ZM19.8025 59.2303L22.2756 54.5541L23.4182 55.1586L20.9451 59.8345L19.8025 59.2303Z" fill="#3A5FCD"/>
<path d="M19.0283 48.0593L19.8908 46.8061L26.0503 51.0452L26.1039 50.9674L22.8812 42.4608L23.6873 41.2896L32.0748 47.062L31.2039 48.3274L25.0525 44.0941L24.999 44.1719L28.219 52.6646L27.4157 53.8317L19.0283 48.0593ZM19.782 42.404L20.4754 41.3965C20.9368 41.7141 21.1995 42.1364 21.2634 42.6632C21.3265 43.1854 21.1673 43.7236 20.7859 44.2779C20.4063 44.8294 19.9614 45.169 19.4511 45.2966C18.9381 45.4223 18.4509 45.3264 17.9895 45.0088L18.68 44.0054C18.8848 44.1464 19.1077 44.2113 19.3487 44.2001C19.587 44.1871 19.8067 44.0344 20.0077 43.7422C20.205 43.4556 20.2682 43.1973 20.1971 42.9674C20.1279 42.7347 19.9895 42.5468 19.782 42.404Z" fill="#3A5FCD"/>
<path d="M26.6134 39.8806L25.6159 39.0124L30.7889 33.0682L31.7865 33.9364L29.7009 36.3328L36.3839 42.1488L35.3787 43.3039L28.6957 37.4879L26.6134 39.8806Z" fill="#3A5FCD"/>
<path d="M39.7165 38.6783L32.7546 31.2486L37.4126 26.8837L38.3169 27.8487L34.7798 31.1631L36.901 33.4269L40.195 30.3402L41.0959 31.3016L37.8018 34.3882L39.9333 36.6629L43.5139 33.3077L44.4181 34.2727L39.7165 38.6783Z" fill="#3A5FCD"/>
<path d="M51.0863 32.2085L49.0286 29.0573L49.5905 28.6904C49.6769 28.4044 49.7064 28.0586 49.679 27.6529C49.6516 27.2472 49.5313 26.7538 49.318 26.1726C49.1047 25.5914 48.7621 24.8909 48.29 24.071L46.1385 20.3398L51.396 16.9066L56.2508 24.3412L57.2165 23.7105L59.2661 26.8492L58.0339 27.6538L56.6966 25.6057L50.9729 29.3434L52.3184 31.4039L51.0863 32.2085ZM51.1057 27.7009L55.0186 25.1458L50.8869 18.8185L48.0271 20.686L49.5222 23.2664C49.8793 23.8921 50.173 24.4722 50.4033 25.0067C50.6363 25.5394 50.8095 26.0319 50.9229 26.4844C51.0372 26.9322 51.0982 27.3377 51.1057 27.7009Z" fill="#3A5FCD"/>
<path d="M60.1177 23.8257L58.6581 24.5528L57.3974 13.8055L58.986 13.014L66.8059 20.4936L65.3463 21.2207L59.0542 15.0463L58.983 15.0818L60.1177 23.8257ZM58.5844 20.1349L63.3191 17.776L63.8955 18.933L59.1608 21.2919L58.5844 20.1349Z" fill="#3A5FCD"/>
<path d="M67.21 20.4509L66.7546 19.1988L67.0315 19.0875C67.4081 18.9399 67.6601 18.7019 67.7875 18.3734C67.918 18.0438 67.9323 17.5836 67.8303 16.993C67.7314 16.4011 67.5309 15.6365 67.2287 14.6989L65.7575 10.1448L71.8079 7.94421L75.2881 17.5128L73.8631 18.0311L70.8282 9.6866L67.5623 10.8744L68.7417 14.5824C69.0739 15.6219 69.2843 16.5205 69.373 17.2783C69.4606 18.0329 69.3711 18.6597 69.1047 19.1587C68.8414 19.6565 68.3469 20.0374 67.6211 20.3014L67.21 20.4509Z" fill="#3A5FCD"/>
<path d="M76.4304 6.78015L79.0354 16.6231L77.5503 17.0161L74.9453 7.17318L76.4304 6.78015Z" fill="#3A5FCD"/>
<path d="M90.59 12.6693C90.1916 12.7146 89.8166 12.6589 89.4652 12.5021C89.1134 12.342 88.8199 12.1086 88.5849 11.8018C88.3531 11.4946 88.2145 11.1418 88.1691 10.7433C88.1234 10.3415 88.1791 9.96657 88.3363 9.61842C88.4964 9.26662 88.73 8.97482 89.0372 8.74303C89.344 8.50794 89.6966 8.36772 90.0951 8.32235C90.4969 8.2766 90.872 8.33396 91.2205 8.49443C91.572 8.65123 91.8636 8.88322 92.0954 9.19041C92.3301 9.49393 92.4703 9.84657 92.516 10.2483C92.5614 10.6468 92.504 11.022 92.344 11.3738C92.1872 11.7252 91.9553 12.0185 91.6485 12.2535C91.3446 12.4849 90.9918 12.6235 90.59 12.6693Z" fill="#3A5FCD"/>
<path d="M109.033 4.18239L108.968 5.50321L104.161 5.26548L103.723 14.1141L102.189 14.0382L102.692 3.86877L109.033 4.18239Z" fill="#3A5FCD"/>
<path d="M120.149 11.017C119.976 12.0903 119.631 12.9814 119.113 13.6903C118.597 14.3959 117.963 14.9014 117.212 15.2066C116.465 15.5092 115.658 15.5905 114.791 15.4507C113.92 15.3103 113.177 14.9789 112.559 14.4563C111.946 13.931 111.505 13.2506 111.237 12.415C110.968 11.5795 110.921 10.6267 111.093 9.55679C111.266 8.48353 111.611 7.59409 112.128 6.88846C112.645 6.17956 113.277 5.67384 114.024 5.37131C114.775 5.06603 115.586 4.98357 116.456 5.12393C117.323 5.26376 118.064 5.59633 118.677 6.12165C119.295 6.64421 119.737 7.32327 120.005 8.15881C120.274 8.99108 120.322 9.94384 120.149 11.017ZM118.647 10.7748C118.779 9.95687 118.757 9.24672 118.583 8.64444C118.412 8.03942 118.12 7.55601 117.709 7.19419C117.301 6.82962 116.809 6.60091 116.233 6.50804C115.654 6.41464 115.113 6.47688 114.612 6.69475C114.11 6.90936 113.682 7.27669 113.326 7.79675C112.974 8.31407 112.732 8.98175 112.6 9.79978C112.468 10.6178 112.488 11.3293 112.659 11.9343C112.834 12.5366 113.125 13.02 113.533 13.3846C113.941 13.7458 114.435 13.9732 115.014 14.0666C115.59 14.1595 116.129 14.0986 116.63 13.884C117.135 13.6666 117.563 13.2993 117.915 12.782C118.271 12.2619 118.515 11.5929 118.647 10.7748Z" fill="#3A5FCD"/>
<path d="M120.961 16.5975L123.708 6.79346L127.203 7.77288C127.966 7.98665 128.559 8.30258 128.982 8.72066C129.405 9.13874 129.674 9.62362 129.788 10.1753C129.902 10.7238 129.876 11.298 129.708 11.898C129.538 12.5012 129.26 13.0084 128.873 13.4197C128.49 13.8286 128.007 14.1028 127.424 14.2424C126.845 14.3796 126.176 14.3418 125.416 14.1289L123.013 13.4554L123.365 12.2011L125.634 12.8371C126.116 12.9721 126.53 12.9987 126.877 12.9169C127.224 12.8318 127.509 12.6637 127.73 12.4127C127.952 12.1616 128.115 11.851 128.219 11.4808C128.322 11.1106 128.344 10.7622 128.284 10.4356C128.225 10.109 128.066 9.82181 127.808 9.57407C127.554 9.32723 127.181 9.13494 126.689 8.99719L124.832 8.47662L122.44 17.0121L120.961 16.5975Z" fill="#3A5FCD"/>
<path d="M132.36 10.8241L132.848 9.59497L140.172 12.5025L139.684 13.7317L136.732 12.5595L133.463 20.7937L132.04 20.2287L135.308 11.9945L132.36 10.8241Z" fill="#3A5FCD"/>
<path d="M138.583 23.1612L137.141 22.4003L145.133 15.1047L146.703 15.9328L145.192 26.648L143.75 25.887L145.092 17.1742L145.022 17.1371L138.583 23.1612ZM140.686 19.7623L145.364 22.2306L144.761 23.3739L140.082 20.9056L140.686 19.7623Z" fill="#3A5FCD"/>
<path d="M151.856 18.9768L153.11 19.8379L148.877 26.0018L148.955 26.0553L157.458 22.8239L158.63 23.6288L152.866 32.0222L151.6 31.1526L155.827 24.9969L155.749 24.9434L147.26 28.1722L146.092 27.3701L151.856 18.9768ZM157.512 19.7247L158.52 20.417C158.203 20.8787 157.781 21.1419 157.254 21.2063C156.732 21.2699 156.193 21.1113 155.639 20.7304C155.087 20.3514 154.747 19.9069 154.619 19.3967C154.493 18.8838 154.588 18.3965 154.905 17.9348L155.909 18.6243C155.768 18.8292 155.704 19.0522 155.715 19.2932C155.728 19.5315 155.881 19.751 156.174 19.9518C156.46 20.1488 156.719 20.2116 156.949 20.1403C157.181 20.0709 157.369 19.9323 157.512 19.7247Z" fill="#3A5FCD"/>
<path d="M160.042 26.5536L160.909 25.5551L166.859 30.722L165.992 31.7205L163.593 29.6374L157.784 36.3264L156.628 35.3224L162.437 28.6334L160.042 26.5536Z" fill="#3A5FCD"/>
<path d="M161.258 39.6553L168.68 32.6857L173.05 37.3393L172.086 38.2445L168.768 34.7109L166.506 36.8344L169.596 40.1253L168.636 41.0271L165.546 37.7362L163.274 39.87L166.632 43.4472L165.668 44.3524L161.258 39.6553Z" fill="#3A5FCD"/>
<path d="M167.739 51.0185L170.888 48.9575L171.256 49.5191C171.542 49.6052 171.888 49.6343 172.294 49.6065C172.699 49.5787 173.192 49.4578 173.773 49.244C174.354 49.0301 175.055 48.6867 175.874 48.2138L179.603 46.0585L183.042 51.3124L175.612 56.1749L176.244 57.1399L173.107 59.1927L172.301 57.9614L174.348 56.6219L170.604 50.9021L168.545 52.2498L167.739 51.0185ZM172.247 51.0333L174.806 54.9435L181.129 50.8053L179.259 47.9474L176.68 49.4451C176.055 49.8029 175.475 50.0972 174.94 50.328C174.408 50.5616 173.916 50.7353 173.463 50.8492C173.016 50.9639 172.61 51.0253 172.247 51.0333Z" fill="#3A5FCD"/>
<path d="M176.132 60.0411L175.403 58.5823L186.149 57.3105L186.942 58.8983L179.471 66.7259L178.742 65.2671L184.91 58.9686L184.874 58.8974L176.132 60.0411ZM179.821 58.504L182.185 63.2363L181.028 63.8139L178.664 59.0816L179.821 58.504Z" fill="#3A5FCD"/>
<path d="M179.514 67.13L180.765 66.6733L180.877 66.9502C181.025 67.3266 181.263 67.5784 181.592 67.7054C181.921 67.8356 182.382 67.8494 182.972 67.7468C183.564 67.6473 184.328 67.446 185.266 67.1429L189.818 65.667L192.025 71.7151L182.46 75.2052L181.94 73.7807L190.282 70.7371L189.09 67.4725L185.384 68.6557C184.344 68.989 183.446 69.2004 182.688 69.2898C181.934 69.3781 181.307 69.2894 180.808 69.0234C180.31 68.7606 179.928 68.2665 179.664 67.541L179.514 67.13Z" fill="#3A5FCD"/>
<path d="M193.194 76.3364L183.354 78.9515L182.959 77.4668L192.799 74.8517L193.194 76.3364Z" fill="#3A5FCD"/>
<path d="M187.319 90.5021C187.273 90.1037 187.329 89.7287 187.485 89.3771C187.645 89.0251 187.878 88.7314 188.185 88.496C188.492 88.2639 188.844 88.125 189.243 88.0792C189.644 88.033 190.019 88.0883 190.368 88.2452C190.72 88.4049 191.012 88.6382 191.244 88.9452C191.479 89.2518 191.62 89.6043 191.666 90.0027C191.712 90.4044 191.655 90.7796 191.495 91.1283C191.338 91.4799 191.107 91.7717 190.8 92.0038C190.496 92.2388 190.144 92.3794 189.742 92.4256C189.344 92.4714 188.969 92.4144 188.617 92.2547C188.265 92.0982 187.971 91.8667 187.736 91.5601C187.504 91.2565 187.365 90.9038 187.319 90.5021Z" fill="#3A5FCD"/>
<path d="M195.825 108.936L194.504 108.872L194.737 104.065L185.888 103.637L185.962 102.102L196.132 102.595L195.825 108.936Z" fill="#3A5FCD"/>
<path d="M189.002 120.059C187.928 119.887 187.037 119.543 186.328 119.027C185.621 118.511 185.115 117.877 184.809 117.127C184.506 116.38 184.424 115.573 184.563 114.706C184.702 113.835 185.033 113.091 185.555 112.473C186.079 111.859 186.759 111.417 187.595 111.148C188.43 110.879 189.383 110.831 190.453 111.002C191.526 111.174 192.416 111.518 193.122 112.034C193.832 112.55 194.338 113.182 194.641 113.929C194.947 114.679 195.031 115.49 194.891 116.36C194.752 117.228 194.42 117.968 193.896 118.582C193.374 119.2 192.695 119.644 191.86 119.913C191.028 120.182 190.075 120.231 189.002 120.059ZM189.242 118.557C190.061 118.688 190.771 118.666 191.373 118.49C191.978 118.319 192.461 118.027 192.822 117.615C193.186 117.207 193.415 116.715 193.507 116.139C193.6 115.559 193.537 115.019 193.318 114.517C193.103 114.016 192.736 113.588 192.215 113.233C191.697 112.881 191.03 112.64 190.211 112.509C189.393 112.378 188.682 112.398 188.077 112.57C187.475 112.745 186.992 113.037 186.627 113.445C186.267 113.854 186.04 114.348 185.947 114.927C185.855 115.503 185.916 116.042 186.131 116.543C186.349 117.048 186.717 117.476 187.235 117.827C187.755 118.183 188.424 118.426 189.242 118.557Z" fill="#3A5FCD"/>
<path d="M183.422 120.877L193.229 123.614L192.253 127.11C192.04 127.873 191.725 128.466 191.307 128.89C190.89 129.314 190.405 129.583 189.854 129.697C189.305 129.812 188.731 129.786 188.131 129.619C187.527 129.45 187.02 129.173 186.608 128.786C186.199 128.403 185.924 127.921 185.784 127.338C185.646 126.759 185.683 126.09 185.896 125.33L186.567 122.926L187.821 123.276L187.188 125.546C187.053 126.028 187.027 126.442 187.109 126.789C187.194 127.136 187.363 127.421 187.614 127.642C187.865 127.864 188.176 128.026 188.547 128.13C188.917 128.233 189.265 128.254 189.592 128.194C189.918 128.134 190.205 127.975 190.453 127.717C190.699 127.462 190.891 127.089 191.029 126.598L191.547 124.74L183.009 122.356L183.422 120.877Z" fill="#3A5FCD"/>
<path d="M189.207 132.27L190.437 132.757L187.537 140.084L186.307 139.597L187.477 136.644L179.239 133.383L179.802 131.959L188.04 135.22L189.207 132.27Z" fill="#3A5FCD"/>
<path d="M176.877 138.506L177.636 137.063L184.94 145.047L184.113 146.618L173.397 145.119L174.156 143.675L182.87 145.009L182.907 144.938L176.877 138.506ZM180.278 140.605L177.814 145.286L176.67 144.684L179.134 140.003L180.278 140.605Z" fill="#3A5FCD"/>
<path d="M181.075 151.774L180.215 153.029L174.047 148.803L173.993 148.881L177.233 157.38L176.43 158.553L168.03 152.798L168.899 151.531L175.059 155.752L175.112 155.674L171.875 147.188L172.675 146.019L181.075 151.774ZM180.333 157.431L179.641 158.44C179.179 158.123 178.916 157.701 178.851 157.175C178.787 156.653 178.945 156.114 179.325 155.559C179.703 155.007 180.148 154.666 180.658 154.538C181.17 154.411 181.658 154.506 182.12 154.822L181.431 155.827C181.226 155.687 181.003 155.622 180.762 155.634C180.524 155.647 180.305 155.801 180.104 156.093C179.908 156.38 179.845 156.639 179.916 156.868C179.986 157.101 180.125 157.288 180.333 157.431Z" fill="#3A5FCD"/>
<path d="M173.506 159.968L174.506 160.834L169.345 166.789L168.346 165.923L170.426 163.523L163.731 157.72L164.734 156.563L171.429 162.365L173.506 159.968Z" fill="#3A5FCD"/>
<path d="M160.406 161.198L167.383 168.613L162.734 172.987L161.828 172.024L165.358 168.703L163.232 166.443L159.945 169.537L159.042 168.577L162.329 165.484L160.193 163.214L156.62 166.576L155.713 165.613L160.406 161.198Z" fill="#3A5FCD"/>
<path d="M149.05 167.691L151.114 170.838L150.553 171.206C150.467 171.492 150.438 171.838 150.466 172.244C150.494 172.649 150.616 173.142 150.83 173.723C151.045 174.304 151.389 175.004 151.863 175.823L154.022 179.549L148.771 182.993L143.901 175.569L142.937 176.201L140.881 173.067L142.111 172.26L143.453 174.305L149.169 170.556L147.819 168.498L149.05 167.691ZM149.039 172.198L145.132 174.762L149.276 181.08L152.132 179.207L150.632 176.63C150.274 176.005 149.979 175.425 149.747 174.891C149.513 174.359 149.339 173.867 149.225 173.415C149.109 172.967 149.048 172.562 149.039 172.198Z" fill="#3A5FCD"/>
<path d="M140.035 176.092L141.493 175.362L142.776 186.107L141.189 186.902L133.354 179.438L134.812 178.708L141.117 184.869L141.188 184.834L140.035 176.092ZM141.576 179.78L136.846 182.148L136.268 180.993L140.997 178.624L141.576 179.78Z" fill="#3A5FCD"/>
<path d="M132.95 179.482L133.408 180.733L133.131 180.845C132.755 180.993 132.504 181.232 132.377 181.56C132.247 181.89 132.234 182.35 132.337 182.941C132.437 183.532 132.639 184.297 132.943 185.234L134.424 189.785L128.378 191.998L124.878 182.436L126.302 181.915L129.354 190.253L132.617 189.059L131.43 185.353C131.096 184.314 130.884 183.416 130.794 182.659C130.704 181.904 130.793 181.277 131.058 180.778C131.32 180.279 131.814 179.897 132.539 179.632L132.95 179.482Z" fill="#3A5FCD"/>
<path d="M123.758 193.171L121.133 183.334L122.617 182.938L125.242 192.775L123.758 193.171Z" fill="#3A5FCD"/>
<path d="M109.586 187.311C109.984 187.265 110.359 187.32 110.711 187.476C111.063 187.636 111.357 187.868 111.593 188.175C111.825 188.481 111.965 188.834 112.011 189.232C112.057 189.634 112.003 190.009 111.846 190.358C111.687 190.71 111.454 191.002 111.147 191.234C110.841 191.47 110.488 191.611 110.09 191.657C109.688 191.704 109.313 191.647 108.964 191.487C108.612 191.331 108.32 191.1 108.088 190.793C107.853 190.49 107.712 190.138 107.665 189.736C107.619 189.338 107.675 188.963 107.835 188.61C107.991 188.259 108.222 187.965 108.528 187.729C108.832 187.497 109.184 187.358 109.586 187.311Z" fill="#3A5FCD"/>
</g>
</g>
<defs>
<clipPath id="clip0_57_4">
<rect width="200" height="200" fill="white"/>
</clipPath>
</defs>
</svg>
