<svg width="540" height="540" viewBox="0 0 540 540" fill="none" xmlns="http://www.w3.org/2000/svg">
<path d="M253.528 525.357C253.605 526.437 254.07 527.29 254.924 527.917C255.777 528.551 256.87 528.895 258.202 528.95C259.156 528.989 259.987 528.871 260.696 528.597C261.405 528.331 261.963 527.944 262.37 527.438C262.77 526.938 262.983 526.36 263.01 525.701C263.033 525.149 262.924 524.666 262.683 524.255C262.434 523.843 262.104 523.492 261.691 523.202C261.27 522.919 260.818 522.677 260.333 522.475C259.848 522.281 259.381 522.117 258.932 521.985L256.685 521.302C255.951 521.09 255.2 520.812 254.433 520.47C253.666 520.128 252.96 519.689 252.315 519.155C251.67 518.62 251.158 517.97 250.78 517.204C250.394 516.437 250.223 515.532 250.266 514.487C250.32 513.17 250.709 512.015 251.432 511.021C252.147 510.027 253.161 509.261 254.472 508.723C255.775 508.185 257.335 507.953 259.152 508.028C260.893 508.099 262.388 508.438 263.637 509.042C264.886 509.647 265.849 510.471 266.527 511.515C267.204 512.567 267.551 513.794 267.57 515.197L264.05 515.053C264.016 514.21 263.772 513.499 263.319 512.919C262.857 512.346 262.257 511.909 261.519 511.605C260.773 511.309 259.949 511.143 259.048 511.106C258.057 511.065 257.169 511.184 256.384 511.463C255.591 511.749 254.96 512.163 254.49 512.704C254.021 513.254 253.77 513.907 253.739 514.664C253.711 515.353 253.884 515.925 254.26 516.38C254.628 516.835 255.139 517.22 255.793 517.535C256.44 517.849 257.175 518.134 257.999 518.387L260.716 519.249C262.557 519.833 264.003 520.639 265.052 521.668C266.094 522.696 266.582 524.02 266.516 525.64C266.461 526.98 266.049 528.135 265.282 529.104C264.514 530.073 263.498 530.809 262.234 531.31C260.97 531.82 259.558 532.042 257.999 531.978C256.424 531.914 255.046 531.58 253.866 530.978C252.677 530.376 251.755 529.576 251.098 528.579C250.441 527.589 250.123 526.469 250.144 525.219L253.528 525.357Z" fill="#3A5FCD"/>
<path d="M223.189 520.281L226.699 520.777C226.728 521.547 226.886 522.242 227.173 522.864C227.46 523.486 227.842 524.034 228.318 524.507C228.794 524.98 229.348 525.364 229.98 525.66C230.604 525.955 231.283 526.154 232.018 526.258C233.346 526.446 234.582 526.28 235.727 525.761C236.864 525.241 237.827 524.379 238.618 523.175C239.4 521.969 239.923 520.437 240.186 518.576C240.451 516.701 240.375 515.076 239.957 513.701C239.532 512.325 238.841 511.232 237.885 510.424C236.928 509.615 235.793 509.118 234.48 508.932C233.753 508.829 233.049 508.829 232.369 508.932C231.68 509.041 231.042 509.253 230.454 509.568C229.866 509.883 229.349 510.295 228.902 510.806C228.446 511.323 228.095 511.939 227.848 512.654L224.34 512.146C224.687 511.04 225.199 510.049 225.873 509.172C226.54 508.303 227.342 507.582 228.279 507.011C229.208 506.446 230.236 506.052 231.362 505.828C232.487 505.605 233.684 505.583 234.952 505.762C236.947 506.045 238.658 506.769 240.084 507.934C241.51 509.108 242.548 510.643 243.197 512.541C243.84 514.437 243.987 516.612 243.64 519.065C243.292 521.525 242.544 523.573 241.394 525.209C240.244 526.852 238.821 528.035 237.127 528.76C235.433 529.492 233.591 529.717 231.603 529.436C230.381 529.263 229.265 528.925 228.258 528.423C227.241 527.928 226.357 527.282 225.605 526.487C224.852 525.7 224.266 524.783 223.848 523.737C223.429 522.698 223.209 521.546 223.189 520.281Z" fill="#3A5FCD"/>
<path d="M219.767 503.423L214.235 526.029L206.177 524.057C204.426 523.628 203.047 522.971 202.039 522.085C201.024 521.197 200.36 520.149 200.047 518.942C199.732 517.741 199.745 516.446 200.086 515.055C200.424 513.672 201.013 512.525 201.852 511.615C202.681 510.711 203.749 510.11 205.054 509.813C206.351 509.515 207.876 509.58 209.627 510.008L215.731 511.502L215.013 514.438L209.218 513.02C208.114 512.75 207.177 512.688 206.408 512.835C205.632 512.981 205.008 513.315 204.536 513.84C204.065 514.364 203.726 515.049 203.518 515.895C203.31 516.749 203.294 517.529 203.472 518.235C203.643 518.94 204.037 519.544 204.655 520.046C205.264 520.554 206.132 520.945 207.257 521.221L211.54 522.269L216.356 502.588L219.767 503.423ZM206.112 510.891L203.023 499.325L206.908 500.276L209.887 511.815L206.112 510.891Z" fill="#3A5FCD"/>
<path d="M175.14 501.945C175.972 499.604 177.115 497.743 178.57 496.362C180.023 494.989 181.656 494.114 183.47 493.737C185.275 493.365 187.123 493.515 189.015 494.187C190.914 494.862 192.449 495.913 193.622 497.343C194.785 498.777 195.495 500.489 195.753 502.478C196.012 504.467 195.726 506.628 194.897 508.963C194.065 511.304 192.923 513.162 191.47 514.535C190.015 515.915 188.386 516.792 186.581 517.164C184.767 517.54 182.911 517.392 181.012 516.717C179.12 516.045 177.593 514.992 176.43 513.558C175.257 512.129 174.542 510.419 174.284 508.43C174.023 506.448 174.309 504.287 175.14 501.945ZM178.417 503.109C177.783 504.894 177.538 506.499 177.683 507.925C177.818 509.356 178.274 510.563 179.05 511.546C179.817 512.534 180.828 513.251 182.084 513.697C183.348 514.146 184.589 514.229 185.807 513.946C187.022 513.67 188.137 513.021 189.151 511.999C190.156 510.981 190.976 509.58 191.609 507.795C192.243 506.01 192.493 504.403 192.358 502.972C192.213 501.546 191.758 500.339 190.991 499.351C190.222 498.37 189.206 497.656 187.942 497.207C186.686 496.76 185.45 496.675 184.234 496.951C183.009 497.231 181.894 497.88 180.889 498.898C179.875 499.921 179.051 501.324 178.417 503.109Z" fill="#3A5FCD"/>
<path d="M173.797 488.52L163.905 509.586L160.727 508.094L169.333 489.764L159.788 485.282L161.073 482.546L173.797 488.52Z" fill="#3A5FCD"/>
<path d="M155.202 479.359L143.521 499.488L140.484 497.725L150.648 480.211L141.527 474.918L143.044 472.304L155.202 479.359Z" fill="#3A5FCD"/>
<path d="M121.697 457.053L127.591 461.746L113.097 479.953L107.015 475.112C105.231 473.692 103.989 472.108 103.29 470.36C102.585 468.617 102.432 466.796 102.831 464.896C103.219 462.998 104.166 461.103 105.671 459.212C107.181 457.316 108.825 455.962 110.604 455.151C112.377 454.335 114.208 454.078 116.097 454.381C117.981 454.691 119.848 455.581 121.697 457.053ZM122.933 461.959L119.937 459.574C118.55 458.47 117.19 457.813 115.856 457.603C114.517 457.399 113.223 457.614 111.974 458.246C110.721 458.884 109.52 459.924 108.374 461.364C107.237 462.792 106.5 464.186 106.164 465.545C105.822 466.899 105.893 468.191 106.377 469.419C106.862 470.647 107.768 471.789 109.095 472.846L112.26 475.366L122.933 461.959Z" fill="#3A5FCD"/>
<path d="M85.7226 439.878C87.4685 438.11 89.293 436.909 91.1961 436.276C93.0938 435.648 94.944 435.548 96.7467 435.976C98.5386 436.403 100.149 437.323 101.577 438.733C103.011 440.149 103.956 441.753 104.412 443.545C104.857 445.336 104.775 447.188 104.166 449.099C103.557 451.01 102.382 452.847 100.641 454.609C98.8953 456.377 97.0734 457.575 95.1757 458.204C93.2726 458.837 91.4251 458.94 89.6332 458.512C87.8305 458.084 86.2122 457.162 84.7783 455.746C83.3498 454.336 82.4129 452.734 81.9677 450.943C81.5117 449.151 81.5884 447.3 82.1977 445.389C82.8017 443.483 83.9767 441.646 85.7226 439.878ZM88.1969 442.321C86.8662 443.669 85.964 445.019 85.4904 446.372C85.0062 447.725 84.9071 449.012 85.1934 450.231C85.469 451.451 86.0811 452.529 87.0299 453.466C87.984 454.408 89.0726 455.009 90.2957 455.269C91.5134 455.535 92.7983 455.42 94.1505 454.924C95.492 454.428 96.8281 453.506 98.1588 452.158C99.4895 450.81 100.397 449.46 100.881 448.107C101.355 446.754 101.454 445.468 101.178 444.248C100.897 443.034 100.28 441.956 99.3258 441.014C98.377 440.077 97.2938 439.476 96.0761 439.21C94.8476 438.945 93.5627 439.06 92.2212 439.556C90.8691 440.052 89.5276 440.974 88.1969 442.321Z" fill="#3A5FCD"/>
<path d="M87.3053 423.832L73.082 443.351L70.7871 440.458L82.0904 425.706L81.9562 425.537L64.905 433.041L62.6313 430.174L73.8305 415.273L73.6964 415.104L56.7563 422.766L54.4543 419.864L76.7063 410.468L78.9024 413.237L68.288 427.907L68.401 428.049L85.1022 421.055L87.3053 423.832Z" fill="#3A5FCD"/>
<path d="M41.1367 398.023L60.9636 385.836L62.6535 388.586L54.3071 407.601L54.4202 407.785L68.9611 398.848L70.7998 401.839L50.973 414.026L49.2712 411.257L57.631 392.22L57.5179 392.036L42.9576 400.985L41.1367 398.023Z" fill="#3A5FCD"/>
<path d="M46.5369 365.542C46.9008 366.383 47.028 367.24 46.9185 368.113C46.802 368.989 46.4864 369.785 45.9715 370.503C45.4536 371.214 44.774 371.752 43.9326 372.116C43.0843 372.483 42.2273 372.61 41.3615 372.497C40.4857 372.381 39.6923 372.064 38.9813 371.546C38.2634 371.031 37.7225 370.353 37.3586 369.511C36.9917 368.663 36.868 367.805 36.9874 366.936C37.0969 366.063 37.4106 365.271 37.9285 364.56C38.4365 363.845 39.1146 363.304 39.9629 362.937C40.8042 362.573 41.6628 362.45 42.5385 362.566C43.4113 362.676 44.2066 362.988 44.9246 363.503C45.6325 364.014 46.17 364.693 46.5369 365.542Z" fill="#3A5FCD"/>
<path d="M21.7878 332.654C20.7836 333.059 20.1144 333.763 19.78 334.768C19.4384 335.775 19.4458 336.921 19.8024 338.206C20.0577 339.125 20.4245 339.88 20.9029 340.471C21.374 341.064 21.9131 341.476 22.5201 341.709C23.1178 341.936 23.7342 341.961 24.3692 341.785C24.9021 341.637 25.3276 341.385 25.6456 341.03C25.9616 340.667 26.1942 340.245 26.3435 339.763C26.4835 339.276 26.5753 338.771 26.6188 338.248C26.655 337.727 26.6671 337.232 26.655 336.763L26.6166 334.416C26.5932 333.652 26.6268 332.852 26.7174 332.017C26.808 331.182 27.0087 330.376 27.3195 329.597C27.6303 328.819 28.0924 328.133 28.7056 327.538C29.3169 326.936 30.1262 326.495 31.1336 326.216C32.4037 325.863 33.6227 325.879 34.7905 326.262C35.9563 326.638 36.9961 327.368 37.9099 328.451C38.8217 329.526 39.5208 330.94 40.007 332.692C40.473 334.371 40.6098 335.898 40.4173 337.272C40.2248 338.646 39.7357 339.816 38.95 340.781C38.157 341.748 37.0954 342.455 35.7652 342.903L34.823 339.509C35.6151 339.218 36.2174 338.768 36.6299 338.158C37.0331 337.543 37.2658 336.837 37.3281 336.042C37.3809 335.241 37.2868 334.406 37.0457 333.538C36.7803 332.581 36.3946 331.772 35.8887 331.111C35.3734 330.444 34.7859 329.97 34.1262 329.69C33.4592 329.411 32.7607 329.373 32.0307 329.575C31.3664 329.76 30.8752 330.1 30.5572 330.598C30.2371 331.087 30.0276 331.692 29.9285 332.411C29.8273 333.123 29.7824 333.91 29.7935 334.772L29.8063 337.622C29.8157 339.554 29.4917 341.177 28.8345 342.492C28.1752 343.799 27.0645 344.669 25.5024 345.103C24.2103 345.461 22.9853 345.424 21.8272 344.991C20.6691 344.557 19.6575 343.816 18.7923 342.767C17.9199 341.72 17.2749 340.444 16.8576 338.94C16.4361 337.422 16.3308 336.008 16.5415 334.7C16.7502 333.384 17.2286 332.261 17.9766 331.33C18.7172 330.401 19.6858 329.755 20.8821 329.391L21.7878 332.654Z" fill="#3A5FCD"/>
<path d="M17.3138 302.221L17.918 305.714C17.1947 305.978 16.581 306.341 16.077 306.805C15.5729 307.269 15.1689 307.8 14.8649 308.399C14.5609 308.997 14.3649 309.642 14.277 310.334C14.1877 311.018 14.2064 311.726 14.3329 312.458C14.5614 313.779 15.0982 314.905 15.9433 315.835C16.7871 316.758 17.9033 317.411 19.2919 317.793C20.6791 318.168 22.2984 318.196 24.1497 317.876C26.0159 317.553 27.5394 316.982 28.7201 316.163C29.8995 315.336 30.7273 314.343 31.2035 313.185C31.6797 312.026 31.8048 310.793 31.5789 309.487C31.4536 308.763 31.2378 308.093 30.9314 307.477C30.6163 306.855 30.2188 306.313 29.7389 305.85C29.2591 305.387 28.7076 305.021 28.0845 304.752C27.4526 304.477 26.7586 304.332 26.0025 304.316L25.4095 300.821C26.569 300.812 27.6693 300.995 28.7103 301.368C29.7425 301.736 30.6743 302.278 31.5057 302.995C32.3283 303.707 33.0185 304.564 33.5764 305.567C34.1342 306.569 34.5222 307.702 34.7404 308.963C35.0838 310.949 34.9195 312.8 34.2474 314.515C33.5679 316.232 32.4247 317.69 30.8179 318.891C29.2098 320.084 27.1852 320.891 24.7442 321.313C22.2957 321.737 20.1169 321.652 18.2077 321.06C16.291 320.469 14.7281 319.478 13.519 318.088C12.3025 316.699 11.5231 315.016 11.181 313.038C10.9706 311.821 10.9498 310.656 11.1186 309.543C11.2787 308.423 11.6217 307.384 12.1477 306.424C12.6662 305.465 13.3591 304.627 14.2266 303.908C15.0866 303.19 16.1156 302.628 17.3138 302.221Z" fill="#3A5FCD"/>
<path d="M32.3097 293.793L9.09685 295.461L8.50215 287.187C8.3729 285.389 8.57544 283.874 9.10979 282.643C9.64359 281.405 10.4371 280.452 11.4904 279.784C12.5362 279.116 13.7731 278.731 15.2013 278.628C16.6218 278.526 17.8938 278.735 19.0173 279.254C20.1326 279.766 21.0317 280.598 21.7145 281.749C22.3967 282.892 22.8024 284.363 22.9317 286.162L23.3822 292.43L20.3672 292.646L19.9395 286.696C19.8581 285.562 19.6293 284.652 19.2534 283.965C18.8769 283.271 18.3668 282.779 17.7233 282.491C17.0798 282.204 16.3236 282.091 15.4546 282.153C14.5781 282.216 13.8309 282.441 13.2131 282.827C12.5947 283.206 12.1413 283.766 11.8528 284.508C11.5563 285.244 11.4496 286.189 11.5327 287.346L11.8487 291.743L32.058 290.291L32.3097 293.793ZM21.0131 283.087L31.0739 276.599L31.3606 280.588L21.2917 286.963L21.0131 283.087Z" fill="#3A5FCD"/>
<path d="M20.0281 250.864C22.5118 250.937 24.6338 251.455 26.3941 252.416C28.1467 253.378 29.4805 254.664 30.3954 256.275C31.303 257.878 31.7271 259.683 31.6678 261.69C31.6083 263.704 31.078 265.489 30.0771 267.043C29.0689 268.59 27.6578 269.791 25.8438 270.647C24.0298 271.503 21.8848 271.894 19.4086 271.821C16.9248 271.747 14.8066 271.23 13.0539 270.269C11.2937 269.307 9.95979 268.025 9.05222 266.422C8.1373 264.81 7.70961 262.998 7.76915 260.984C7.82847 258.977 8.36226 257.2 9.37052 255.654C10.3714 254.099 11.7789 252.894 13.5928 252.038C15.3992 251.182 17.5443 250.791 20.0281 250.864ZM19.9253 254.34C18.0322 254.284 16.4291 254.543 15.1161 255.118C13.7957 255.686 12.7867 256.49 12.089 257.53C11.3839 258.563 11.0117 259.745 10.9723 261.078C10.9327 262.419 11.2343 263.625 11.8771 264.697C12.5124 265.77 13.4722 266.632 14.7565 267.284C16.0335 267.928 17.6185 268.278 19.5116 268.334C21.4048 268.39 23.0115 268.134 24.3319 267.567C25.6449 266.992 26.6539 266.188 27.359 265.155C28.0565 264.122 28.425 262.936 28.4647 261.595C28.5041 260.263 28.2061 259.06 27.5709 257.988C26.9283 256.908 25.9685 256.046 24.6915 255.402C23.4071 254.75 21.8184 254.396 19.9253 254.34Z" fill="#3A5FCD"/>
<path d="M32.3938 245.467L9.3092 242.514L9.75477 239.031L29.8411 241.601L31.1792 231.141L34.1775 231.524L32.3938 245.467Z" fill="#3A5FCD"/>
<path d="M35.4099 224.959L12.6684 220.015L13.4143 216.584L33.2021 220.886L35.4424 210.581L38.3961 211.223L35.4099 224.959Z" fill="#3A5FCD"/>
<path d="M46.3636 186.227L43.7053 193.277L21.9293 185.065L24.6718 177.793C25.4763 175.659 26.6032 173.991 28.0525 172.789C29.4946 171.584 31.181 170.88 33.1117 170.676C35.038 170.464 37.1317 170.784 39.393 171.636C41.6613 172.492 43.4543 173.641 44.7719 175.085C46.0922 176.523 46.8978 178.186 47.1887 180.077C47.4726 181.966 47.1975 184.016 46.3636 186.227ZM42.0734 188.909L43.4245 185.325C44.05 183.667 44.258 182.17 44.0485 180.836C43.832 179.5 43.2311 178.334 42.2461 177.339C41.2539 176.342 39.8966 175.518 38.1741 174.869C36.4657 174.224 34.9132 173.951 33.5165 174.047C32.1225 174.137 30.9153 174.601 29.895 175.439C28.8747 176.277 28.0652 177.489 27.4664 179.077L26.0391 182.862L42.0734 188.909Z" fill="#3A5FCD"/>
<path d="M51.6765 146.719C53.8949 147.838 55.5974 149.206 56.7841 150.824C57.9639 152.437 58.6267 154.168 58.7724 156.015C58.9147 157.851 58.5337 159.666 57.6292 161.458C56.7214 163.257 55.4848 164.649 53.9193 165.632C52.3505 166.606 50.5632 167.095 48.5575 167.101C46.5517 167.108 44.443 166.553 42.2314 165.437C40.013 164.317 38.3138 162.951 37.134 161.337C35.9473 159.72 35.2828 157.993 35.1405 156.156C34.9949 154.309 35.3759 152.486 36.2838 150.687C37.1882 148.895 38.4248 147.512 39.9936 146.539C41.5591 145.555 43.3447 145.06 45.3504 145.054C47.3494 145.045 49.4581 145.599 51.6765 146.719ZM50.11 149.823C48.4191 148.97 46.8572 148.526 45.4242 148.49C43.9878 148.444 42.7332 148.744 41.6602 149.391C40.5839 150.027 39.7454 150.94 39.1447 152.131C38.5406 153.328 38.3024 154.548 38.4299 155.792C38.5507 157.033 39.0546 158.22 39.9414 159.355C40.825 160.48 42.1121 161.469 43.803 162.322C45.4939 163.175 47.0575 163.625 48.4938 163.671C49.9268 163.707 51.1815 163.406 52.2578 162.77C53.3274 162.13 54.1642 161.212 54.7683 160.015C55.369 158.824 55.6089 157.609 55.4881 156.368C55.364 155.118 54.8601 153.93 53.9766 152.805C53.0897 151.671 51.8009 150.676 50.11 149.823Z" fill="#3A5FCD"/>
<path d="M67.4343 143.304L44.4938 135.753L46.544 132.681L64.0516 138.915L64.1715 138.735L51.7989 124.808L53.8302 121.764L71.4482 127.853L71.568 127.673L59.0787 113.9L61.1352 110.819L76.9031 129.117L74.9412 132.056L57.7232 126.453L57.6223 126.604L69.4025 140.355L67.4343 143.304Z" fill="#3A5FCD"/>
<path d="M77.8385 91.4442L95.5192 106.577L93.4206 109.029L72.7614 106.918L72.621 107.082L85.5881 118.18L83.3048 120.848L65.6241 105.715L67.7374 103.246L88.4212 105.363L88.5616 105.199L75.5774 94.0859L77.8385 91.4442Z" fill="#3A5FCD"/>
<path d="M110.411 86.621C109.722 87.2254 108.945 87.6093 108.081 87.7728C107.211 87.9306 106.356 87.8745 105.515 87.6047C104.679 87.3298 103.959 86.8478 103.355 86.1587C102.745 85.4638 102.361 84.6871 102.203 83.8285C102.045 82.9592 102.104 82.1068 102.379 81.2712C102.648 80.43 103.128 79.7071 103.817 79.1027C104.512 78.4933 105.291 78.1122 106.155 77.9594C107.019 77.7959 107.869 77.8516 108.705 78.1265C109.541 78.3906 110.264 78.8702 110.873 79.565C111.477 80.2542 111.859 81.0334 112.016 81.9027C112.18 82.767 112.127 83.6197 111.857 84.461C111.588 85.2916 111.106 86.0115 110.411 86.621Z" fill="#3A5FCD"/>
<path d="M134.122 52.9775C133.429 52.1458 132.553 51.725 131.494 51.7149C130.431 51.6986 129.342 52.0571 128.229 52.7906C127.432 53.3157 126.825 53.8965 126.41 54.5329C125.991 55.1631 125.763 55.8027 125.728 56.4517C125.695 57.0903 125.86 57.6848 126.223 58.2352C126.527 58.697 126.897 59.0248 127.333 59.2184C127.775 59.4078 128.249 59.4997 128.753 59.4941C129.259 59.478 129.768 59.4104 130.279 59.2913C130.787 59.166 131.261 59.0257 131.703 58.8706L133.926 58.1138C134.646 57.8572 135.418 57.644 136.24 57.4741C137.063 57.3043 137.892 57.2479 138.728 57.305C139.564 57.3622 140.359 57.5914 141.113 57.9927C141.873 58.3898 142.541 59.0249 143.116 59.8979C143.842 60.9987 144.201 62.1637 144.194 63.3928C144.193 64.6178 143.818 65.8313 143.068 67.0332C142.323 68.231 141.192 69.33 139.674 70.3302C138.219 71.2887 136.808 71.8871 135.441 72.1254C134.074 72.3637 132.81 72.2569 131.651 71.8051C130.487 71.3469 129.488 70.5534 128.654 69.4247L131.596 67.4869C132.115 68.1516 132.729 68.5868 133.436 68.7924C134.145 68.9875 134.887 68.9926 135.664 68.8078C136.442 68.6125 137.208 68.2669 137.961 67.7709C138.79 67.225 139.441 66.6098 139.916 65.9253C140.392 65.2304 140.663 64.5259 140.728 63.8118C140.789 63.0915 140.611 62.415 140.194 61.7823C139.815 61.2066 139.34 60.8436 138.769 60.6934C138.205 60.539 137.565 60.525 136.85 60.6513C136.141 60.7735 135.378 60.972 134.561 61.247L131.852 62.1334C130.017 62.7348 128.373 62.9243 126.92 62.7019C125.473 62.4754 124.304 61.6852 123.412 60.3314C122.675 59.2116 122.335 58.0341 122.392 56.7989C122.449 55.5638 122.844 54.3735 123.578 53.2282C124.307 52.0766 125.323 51.0716 126.626 50.2131C127.942 49.3462 129.255 48.8124 130.565 48.6116C131.882 48.4067 133.098 48.5174 134.213 48.9438C135.325 49.3638 136.237 50.0874 136.95 51.1146L134.122 52.9775Z" fill="#3A5FCD"/>
<path d="M161.716 39.3844L158.576 41.031C158.103 40.4235 157.569 39.9509 156.973 39.6134C156.377 39.2759 155.747 39.0543 155.084 38.9485C154.421 38.8428 153.747 38.8541 153.062 38.9826C152.383 39.1075 151.715 39.3424 151.058 39.6872C149.87 40.31 148.963 41.1662 148.337 42.2559C147.718 43.3421 147.439 44.6047 147.501 46.0436C147.569 47.4791 148.04 49.0287 148.912 50.6926C149.792 52.3699 150.802 53.6448 151.944 54.5173C153.093 55.3863 154.292 55.8697 155.541 55.9675C156.79 56.0653 158.001 55.8064 159.175 55.1906C159.826 54.8493 160.397 54.4384 160.89 53.9579C161.385 53.4671 161.779 52.9224 162.073 52.3237C162.366 51.725 162.545 51.0879 162.61 50.4123C162.678 49.7265 162.604 49.0214 162.386 48.2971L165.531 46.6605C165.895 47.7615 166.059 48.8647 166.022 49.9701C165.989 51.0653 165.759 52.1185 165.331 53.1298C164.907 54.1309 164.303 55.0508 163.519 55.8893C162.736 56.7279 161.777 57.4445 160.643 58.0392C158.859 58.9751 157.047 59.3863 155.208 59.2727C153.366 59.1525 151.627 58.5118 149.991 57.3507C148.363 56.186 146.973 54.5067 145.823 52.3129C144.668 50.1123 144.081 48.0125 144.059 46.0137C144.034 44.0081 144.497 42.2167 145.449 40.6395C146.398 39.0556 147.761 37.7975 149.539 36.8651C150.633 36.2916 151.735 35.9144 152.847 35.7337C153.961 35.5427 155.056 35.5503 156.131 35.7565C157.202 35.9561 158.213 36.3584 159.163 36.9635C160.11 37.5619 160.961 38.3689 161.716 39.3844Z" fill="#3A5FCD"/>
<path d="M174.337 51.0727L165.629 29.4905L173.322 26.3866C174.994 25.712 176.498 25.4402 177.833 25.5712C179.175 25.6994 180.326 26.1623 181.285 26.9599C182.241 27.7505 182.987 28.8097 183.523 30.1375C184.056 31.4583 184.248 32.733 184.098 33.9615C183.952 35.1803 183.437 36.2911 182.551 37.2939C181.672 38.294 180.396 39.1313 178.724 39.806L172.896 42.1573L171.765 39.3541L177.298 37.1219C178.352 36.6967 179.148 36.1998 179.686 35.6313C180.232 35.0599 180.543 34.4238 180.62 33.723C180.696 33.0221 180.572 32.2678 180.246 31.4599C179.917 30.6449 179.474 30.0026 178.917 29.533C178.367 29.0606 177.694 28.8009 176.899 28.7541C176.108 28.6974 175.176 28.8858 174.101 29.3195L170.012 30.9693L177.593 49.7589L174.337 51.0727ZM181.062 37.0367L190.323 44.6225L186.614 46.1192L177.458 38.4909L181.062 37.0367Z" fill="#3A5FCD"/>
<path d="M211.429 26.2154C212.121 28.602 212.28 30.7804 211.904 32.7508C211.527 34.7138 210.712 36.3778 209.459 37.7428C208.212 39.0984 206.624 40.0557 204.696 40.6147C202.76 41.1759 200.899 41.2185 199.113 40.7426C197.331 40.2574 195.755 39.2827 194.384 37.8187C193.013 36.3547 191.983 34.4331 191.293 32.0538C190.601 29.6672 190.444 27.4924 190.821 25.5294C191.196 23.5591 192.008 21.8961 193.255 20.5405C194.508 19.1756 196.102 18.2125 198.038 17.6514C199.966 17.0923 201.821 17.0554 203.602 17.5407C205.388 18.0166 206.967 18.9865 208.338 20.4505C209.707 21.9072 210.737 23.8289 211.429 26.2154ZM208.09 27.1838C207.562 25.3647 206.824 23.9185 205.873 22.8452C204.928 21.7625 203.854 21.0487 202.65 20.7037C201.45 20.3494 200.211 20.3578 198.93 20.7291C197.642 21.1025 196.586 21.7596 195.763 22.7005C194.937 23.634 194.411 24.8119 194.184 26.2343C193.963 27.6473 194.116 29.2633 194.643 31.0823C195.171 32.9013 195.907 34.3522 196.852 35.4349C197.802 36.5083 198.877 37.2221 200.076 37.5764C201.273 37.9235 202.515 37.9103 203.803 37.5369C205.084 37.1656 206.137 36.5132 206.963 35.5797C207.794 34.6368 208.32 33.4588 208.541 32.0458C208.768 30.6235 208.617 29.0028 208.09 27.1838Z" fill="#3A5FCD"/>
<path d="M220.359 36.3299L216.089 13.4522L219.541 12.808L223.256 32.7142L233.623 30.7795L234.177 33.7509L220.359 36.3299Z" fill="#3A5FCD"/>
<path d="M240.804 32.9103L238.534 9.74856L242.028 9.4061L244.003 29.5596L254.499 28.5311L254.793 31.5394L240.804 32.9103Z" fill="#3A5FCD"/>
<path d="M281.029 31.4557L273.503 31.0879L274.64 7.84289L282.403 8.22237C284.681 8.33371 286.614 8.89467 288.203 9.90527C289.792 10.9083 290.98 12.2975 291.765 14.0728C292.558 15.8409 292.896 17.9319 292.778 20.3456C292.66 22.767 292.115 24.8262 291.145 26.5233C290.182 28.2207 288.846 29.4979 287.135 30.3548C285.425 31.2041 283.389 31.5711 281.029 31.4557ZM277.16 28.1948L280.985 28.3817C282.756 28.4683 284.244 28.2073 285.449 27.5988C286.655 26.9826 287.58 26.0532 288.225 24.8105C288.87 23.5602 289.238 22.0157 289.328 20.177C289.417 18.3534 289.201 16.7918 288.681 15.4921C288.168 14.1928 287.356 13.186 286.246 12.4719C285.135 11.7577 283.733 11.3592 282.038 11.2764L277.997 11.0788L277.16 28.1948Z" fill="#3A5FCD"/>
<path d="M320.262 24.3943C319.877 26.8491 319.097 28.8892 317.922 30.5147C316.748 32.1326 315.304 33.2942 313.591 33.9993C311.886 34.6982 310.042 34.8921 308.059 34.581C306.068 34.2688 304.365 33.5185 302.948 32.3302C301.541 31.1355 300.526 29.5846 299.905 27.6775C299.284 25.7703 299.166 23.5931 299.549 21.1457C299.934 18.6909 300.714 16.6545 301.888 15.0365C303.063 13.4111 304.503 12.249 306.207 11.5501C307.921 10.8449 309.773 10.6485 311.764 10.9607C313.747 11.2718 315.442 12.0246 316.85 13.2193C318.266 14.4076 319.285 15.9554 319.906 17.8625C320.528 19.7622 320.647 21.9394 320.262 24.3943ZM316.827 23.8555C317.12 21.9844 317.064 20.3614 316.659 18.9865C316.262 17.6053 315.591 16.5033 314.647 15.6803C313.711 14.8511 312.584 14.3331 311.267 14.1265C309.942 13.9188 308.708 14.0664 307.563 14.5693C306.419 15.0647 305.443 15.9086 304.635 17.1008C303.836 18.2867 303.289 19.8152 302.996 21.6862C302.702 23.5573 302.754 25.1834 303.151 26.5646C303.556 27.9395 304.227 29.0416 305.163 29.8709C306.1 30.6927 307.231 31.2074 308.556 31.4152C309.873 31.6218 311.103 31.4774 312.247 30.9819C313.399 30.4801 314.375 29.6363 315.174 28.4504C315.983 27.2582 316.533 25.7265 316.827 23.8555Z" fill="#3A5FCD"/>
<path d="M328.346 38.345L328.496 14.1942L332.049 15.2034L331.486 33.7792L331.693 33.8382L341.154 17.79L344.674 18.7898L344.283 37.4262L344.491 37.4852L353.769 21.3733L357.333 22.3856L344.753 43.0058L341.354 42.0401L341.406 23.9334L341.231 23.8837L331.756 39.3138L328.346 38.345Z" fill="#3A5FCD"/>
<path d="M380.897 32.3412L371.916 53.8114L368.939 52.566L364.612 32.255L364.413 32.1717L357.826 47.9179L354.587 46.5629L363.568 25.0927L366.566 26.3468L370.895 46.6832L371.094 46.7665L377.689 30.9993L380.897 32.3412Z" fill="#3A5FCD"/>
<path d="M395.478 61.8637C394.692 61.3932 394.088 60.7717 393.667 59.9992C393.251 59.2202 393.042 58.389 393.04 57.5055C393.046 56.6259 393.284 55.7928 393.754 55.0061C394.229 54.2129 394.85 53.6093 395.619 53.1951C396.398 52.7783 397.227 52.5725 398.107 52.5778C398.99 52.5766 399.825 52.8113 400.612 53.2819C401.405 53.7563 402.007 54.3811 402.417 55.1562C402.838 55.9287 403.045 56.7547 403.04 57.6343C403.045 58.5113 402.811 59.3464 402.336 60.1395C401.866 60.9262 401.241 61.5279 400.462 61.9447C399.689 62.3654 398.861 62.5764 397.978 62.5776C397.105 62.5761 396.272 62.3382 395.478 61.8637Z" fill="#3A5FCD"/>
<path d="M434.773 74.1125C435.352 73.1978 435.484 72.235 435.169 71.224C434.858 70.2071 434.183 69.2813 433.144 68.4465C432.399 67.8488 431.661 67.4499 430.927 67.2499C430.199 67.0438 429.52 67.0237 428.892 67.1894C428.274 67.3539 427.759 67.6931 427.346 68.207C427 68.6382 426.801 69.091 426.751 69.5654C426.706 70.0444 426.764 70.5231 426.924 71.0014C427.095 71.4785 427.315 71.9421 427.585 72.3922C427.86 72.8364 428.139 73.2451 428.422 73.6183L429.824 75.502C430.29 76.1086 430.729 76.7773 431.143 77.508C431.557 78.2388 431.865 79.0107 432.067 79.8239C432.269 80.6371 432.295 81.4642 432.144 82.3051C431.999 83.1508 431.6 83.9812 430.945 84.7964C430.12 85.8242 429.121 86.5234 427.949 86.894C426.783 87.2693 425.513 87.2841 424.139 86.9385C422.771 86.5977 421.378 85.858 419.96 84.7197C418.601 83.6287 417.599 82.4692 416.953 81.2411C416.307 80.013 416.021 78.7779 416.095 77.5357C416.174 76.2877 416.623 75.0935 417.442 73.9533L420.188 76.1589C419.715 76.8573 419.489 77.5744 419.51 78.3104C419.542 79.0452 419.765 79.7537 420.179 80.4359C420.604 81.117 421.167 81.7398 421.87 82.3042C422.644 82.9256 423.43 83.3571 424.227 83.5987C425.034 83.8392 425.788 83.8807 426.487 83.7235C427.192 83.5603 427.781 83.1834 428.255 82.5926C428.687 82.0551 428.887 81.4917 428.855 80.9024C428.828 80.3179 428.646 79.7047 428.306 79.0629C427.972 78.4257 427.549 77.7606 427.037 77.0676L425.362 74.761C424.227 73.1983 423.542 71.6916 423.308 70.2406C423.08 68.7944 423.474 67.4392 424.489 66.1751C425.328 65.1296 426.345 64.4446 427.538 64.1202C428.731 63.7958 429.985 63.807 431.3 64.1537C432.62 64.4944 433.888 65.1534 435.105 66.1305C436.334 67.1171 437.245 68.2031 437.838 69.3885C438.437 70.5786 438.704 71.7699 438.64 72.9624C438.582 74.149 438.173 75.2391 437.414 76.2328L434.773 74.1125Z" fill="#3A5FCD"/>
<path d="M456.175 96.2071L453.644 93.7237C454.078 93.0875 454.363 92.4339 454.502 91.763C454.64 91.092 454.658 90.4249 454.555 89.7616C454.453 89.0983 454.235 88.4601 453.903 87.8472C453.576 87.2395 453.147 86.6757 452.617 86.1556C451.66 85.2164 450.567 84.6159 449.338 84.3542C448.114 84.0978 446.827 84.2196 445.476 84.7197C444.131 85.2252 442.8 86.1483 441.484 87.4892C440.158 88.8409 439.254 90.1939 438.774 91.5484C438.299 92.9082 438.207 94.1974 438.497 95.4162C438.787 96.6349 439.405 97.7085 440.351 98.6372C440.875 99.1519 441.442 99.5698 442.05 99.8909C442.669 100.212 443.309 100.42 443.969 100.516C444.628 100.611 445.29 100.587 445.953 100.441C446.626 100.295 447.275 100.008 447.897 99.5791L450.42 102.071C449.483 102.754 448.483 103.249 447.42 103.553C446.368 103.858 445.295 103.961 444.201 103.865C443.118 103.768 442.057 103.475 441.018 102.986C439.98 102.498 439.004 101.805 438.09 100.908C436.652 99.4968 435.705 97.8985 435.249 96.1135C434.798 94.3231 434.875 92.4715 435.478 90.5587C436.087 88.6512 437.259 86.8135 438.995 85.0455C440.735 83.2721 442.553 82.0685 444.449 81.4347C446.35 80.7955 448.197 80.6872 449.991 81.1097C451.789 81.5268 453.405 82.4385 454.838 83.8447C455.719 84.7097 456.416 85.6433 456.929 86.6457C457.453 87.6479 457.781 88.6922 457.915 89.7784C458.053 90.8592 457.98 91.9447 457.696 93.0349C457.417 94.1196 456.91 95.177 456.175 96.2071Z" fill="#3A5FCD"/>
<path d="M448.921 111.805L466.792 96.8969L472.106 103.267C473.261 104.651 473.981 105.999 474.266 107.311C474.555 108.628 474.468 109.865 474.003 111.022C473.544 112.175 472.764 113.21 471.665 114.127C470.571 115.039 469.417 115.613 468.201 115.847C466.997 116.082 465.781 115.932 464.555 115.397C463.334 114.867 462.145 113.909 460.99 112.525L456.965 107.699L459.286 105.763L463.108 110.344C463.836 111.217 464.553 111.822 465.259 112.16C465.97 112.504 466.671 112.605 467.362 112.463C468.052 112.321 468.732 111.971 469.401 111.413C470.076 110.85 470.551 110.232 470.827 109.557C471.108 108.889 471.149 108.169 470.95 107.398C470.761 106.628 470.296 105.798 469.553 104.908L466.729 101.522L451.17 114.501L448.921 111.805ZM464.343 113.901L459.964 125.042L457.402 121.971L461.854 110.917L464.343 113.901Z" fill="#3A5FCD"/>
<path d="M483.957 139.485C481.898 140.876 479.873 141.695 477.883 141.942C475.899 142.185 474.065 141.919 472.381 141.146C470.709 140.374 469.31 139.156 468.187 137.493C467.059 135.823 466.448 134.064 466.353 132.218C466.268 130.374 466.712 128.575 467.685 126.821C468.658 125.067 470.171 123.496 472.224 122.11C474.283 120.719 476.305 119.903 478.289 119.66C480.28 119.413 482.111 119.675 483.784 120.446C485.468 121.22 486.873 122.442 488.001 124.112C489.125 125.776 489.729 127.53 489.813 129.374C489.908 131.221 489.469 133.021 488.496 134.775C487.53 136.524 486.017 138.095 483.957 139.485ZM482.011 136.604C483.581 135.544 484.731 134.397 485.461 133.163C486.202 131.932 486.552 130.69 486.51 129.438C486.48 128.188 486.092 127.01 485.345 125.906C484.595 124.794 483.646 123.991 482.498 123.496C481.356 122.996 480.073 122.857 478.65 123.077C477.237 123.3 475.746 123.941 474.176 125.001C472.607 126.061 471.452 127.207 470.711 128.438C469.981 129.672 469.631 130.914 469.662 132.164C469.698 133.409 470.092 134.588 470.842 135.699C471.589 136.804 472.533 137.606 473.674 138.106C474.827 138.608 476.109 138.747 477.522 138.524C478.945 138.304 480.442 137.663 482.011 136.604Z" fill="#3A5FCD"/>
<path d="M477.069 151.087L497.535 140.005L499.207 143.093L481.399 152.735L486.421 162.008L483.762 163.448L477.069 151.087Z" fill="#3A5FCD"/>
<path d="M486.595 169.497L507.944 160.232L509.342 163.453L490.766 171.515L494.964 181.189L492.191 182.392L486.595 169.497Z" fill="#3A5FCD"/>
<path d="M500.317 207.337L498.359 200.062L520.832 194.013L522.852 201.519C523.445 203.721 523.504 205.733 523.03 207.555C522.562 209.376 521.604 210.932 520.156 212.224C518.716 213.521 516.829 214.484 514.496 215.112C512.155 215.742 510.028 215.856 508.115 215.453C506.204 215.057 504.579 214.177 503.238 212.811C501.905 211.444 500.932 209.619 500.317 207.337ZM502.235 202.655L503.23 206.353C503.691 208.065 504.395 209.401 505.344 210.362C506.301 211.32 507.469 211.916 508.85 212.148C510.238 212.379 511.82 212.255 513.598 211.776C515.361 211.302 516.781 210.618 517.859 209.724C518.938 208.837 519.647 207.756 519.986 206.48C520.326 205.204 520.275 203.746 519.834 202.108L518.782 198.201L502.235 202.655Z" fill="#3A5FCD"/>
<path d="M519.072 242.513C516.618 242.9 514.437 242.783 512.529 242.163C510.629 241.542 509.081 240.524 507.884 239.11C506.696 237.702 505.946 236.006 505.634 234.023C505.32 232.032 505.512 230.181 506.209 228.468C506.914 226.762 508.079 225.321 509.704 224.145C511.328 222.969 513.364 222.188 515.811 221.802C518.266 221.416 520.443 221.533 522.343 222.154C524.251 222.774 525.799 223.788 526.987 225.196C528.183 226.611 528.938 228.313 529.252 230.304C529.564 232.287 529.368 234.132 528.662 235.838C527.966 237.551 526.805 238.995 525.18 240.171C523.563 241.346 521.527 242.127 519.072 242.513ZM518.532 239.078C520.402 238.784 521.93 238.233 523.114 237.425C524.307 236.624 525.15 235.647 525.644 234.496C526.146 233.351 526.294 232.12 526.086 230.802C525.878 229.478 525.358 228.348 524.529 227.413C523.706 226.476 522.604 225.806 521.221 225.403C519.847 225.005 518.225 224.954 516.354 225.249C514.483 225.543 512.951 226.091 511.758 226.893C510.574 227.7 509.731 228.677 509.229 229.822C508.734 230.966 508.591 232.2 508.799 233.524C509.007 234.842 509.522 235.968 510.344 236.905C511.175 237.848 512.277 238.518 513.651 238.915C515.034 239.318 516.661 239.373 518.532 239.078Z" fill="#3A5FCD"/>
<path d="M508.274 254.486L531.307 247.222L531.436 250.913L513.583 256.075L513.59 256.29L531.767 260.373L531.895 264.03L514.037 269.374L514.044 269.589L532.225 273.479L532.355 277.181L508.87 271.533L508.747 268.001L525.997 262.497L525.99 262.315L508.398 258.03L508.274 254.486Z" fill="#3A5FCD"/>
<path d="M530.107 302.663L506.917 300.701L507.189 297.485L525.194 287.137L525.212 286.921L508.205 285.482L508.501 281.984L531.691 283.946L531.417 287.184L513.388 297.542L513.37 297.757L530.4 299.198L530.107 302.663Z" fill="#3A5FCD"/>
<path d="M506.48 325.597C506.687 324.704 507.093 323.939 507.699 323.301C508.313 322.666 509.04 322.212 509.88 321.94C510.719 321.675 511.585 321.646 512.478 321.852C513.379 322.061 514.144 322.467 514.774 323.072C515.41 323.685 515.86 324.411 516.124 325.25C516.397 326.091 516.429 326.958 516.223 327.851C516.014 328.751 515.604 329.516 514.992 330.144C514.386 330.781 513.664 331.232 512.825 331.497C511.992 331.771 511.125 331.804 510.225 331.595C509.331 331.389 508.567 330.979 507.931 330.365C507.294 329.759 506.839 329.035 506.567 328.195C506.301 327.363 506.272 326.497 506.48 325.597Z" fill="#3A5FCD"/>
<path d="M506.874 366.754C507.923 367.025 508.879 366.855 509.745 366.245C510.618 365.638 511.292 364.711 511.767 363.465C512.108 362.574 512.261 361.748 512.227 360.989C512.199 360.233 512.01 359.581 511.66 359.033C511.314 358.496 510.833 358.109 510.217 357.874C509.7 357.677 509.209 357.627 508.742 357.724C508.272 357.829 507.834 358.03 507.428 358.329C507.026 358.638 506.653 358.99 506.307 359.385C505.969 359.783 505.665 360.174 505.397 360.558L504.034 362.471C503.599 363.099 503.098 363.723 502.529 364.341C501.96 364.959 501.32 365.489 500.608 365.931C499.896 366.372 499.117 366.65 498.27 366.765C497.421 366.887 496.508 366.761 495.531 366.388C494.3 365.918 493.328 365.182 492.616 364.18C491.901 363.185 491.497 361.981 491.405 360.567C491.31 359.16 491.586 357.607 492.235 355.909C492.857 354.281 493.653 352.971 494.623 351.98C495.594 350.988 496.682 350.337 497.887 350.027C499.099 349.719 500.374 349.78 501.71 350.21L500.453 353.5C499.643 353.264 498.891 353.269 498.197 353.515C497.508 353.77 496.902 354.2 496.379 354.803C495.861 355.416 495.442 356.144 495.12 356.986C494.766 357.913 494.596 358.793 494.611 359.626C494.629 360.468 494.821 361.198 495.185 361.816C495.557 362.436 496.096 362.881 496.804 363.152C497.448 363.398 498.045 363.415 498.596 363.204C499.145 363 499.672 362.637 500.179 362.117C500.683 361.604 501.186 360.998 501.689 360.298L503.371 357.996C504.51 356.436 505.734 355.323 507.043 354.655C508.35 353.994 509.76 353.953 511.275 354.531C512.527 355.01 513.491 355.767 514.166 356.803C514.841 357.839 515.215 359.036 515.288 360.394C515.368 361.755 515.13 363.164 514.573 364.622C514.011 366.094 513.257 367.294 512.311 368.222C511.362 369.157 510.31 369.777 509.155 370.083C508.008 370.39 506.845 370.336 505.666 369.918L506.874 366.754Z" fill="#3A5FCD"/>
<path d="M492.409 393.902L493.997 390.731C494.735 390.949 495.445 391.02 496.126 390.946C496.807 390.872 497.447 390.685 498.047 390.383C498.647 390.082 499.188 389.679 499.669 389.175C500.147 388.677 500.553 388.096 500.885 387.433C501.485 386.234 501.722 385.009 501.594 383.759C501.462 382.515 500.952 381.328 500.061 380.195C499.168 379.07 497.881 378.087 496.201 377.245C494.508 376.397 492.943 375.952 491.506 375.911C490.066 375.876 488.811 376.183 487.74 376.833C486.669 377.483 485.836 378.401 485.243 379.586C484.914 380.243 484.69 380.91 484.571 381.588C484.455 382.276 484.453 382.948 484.564 383.605C484.676 384.263 484.902 384.885 485.244 385.471C485.589 386.067 486.061 386.596 486.661 387.057L485.063 390.223C484.125 389.541 483.348 388.741 482.732 387.822C482.119 386.914 481.691 385.924 481.448 384.854C481.208 383.793 481.162 382.694 481.308 381.555C481.454 380.417 481.814 379.276 482.388 378.131C483.29 376.329 484.521 374.937 486.08 373.956C487.646 372.978 489.431 372.482 491.437 372.47C493.439 372.465 495.548 373.017 497.763 374.126C499.985 375.239 501.688 376.6 502.873 378.21C504.065 379.824 504.734 381.549 504.882 383.385C505.037 385.225 504.665 387.042 503.766 388.837C503.213 389.941 502.538 390.891 501.741 391.687C500.948 392.493 500.055 393.126 499.062 393.586C498.075 394.049 497.02 394.313 495.895 394.376C494.777 394.443 493.615 394.285 492.409 393.902Z" fill="#3A5FCD"/>
<path d="M475.338 391.782L495.009 404.219L490.576 411.23C489.613 412.754 488.551 413.853 487.39 414.526C486.225 415.206 485.021 415.502 483.776 415.415C482.539 415.331 481.315 414.907 480.104 414.142C478.901 413.38 478.001 412.458 477.405 411.373C476.811 410.298 476.581 409.095 476.715 407.764C476.845 406.439 477.392 405.014 478.355 403.49L481.713 398.179L484.268 399.794L481.08 404.837C480.473 405.797 480.117 406.665 480.011 407.441C479.902 408.224 480.021 408.922 480.368 409.536C480.715 410.149 481.257 410.689 481.993 411.154C482.736 411.624 483.47 411.887 484.197 411.943C484.919 412.005 485.617 411.823 486.29 411.397C486.965 410.982 487.612 410.284 488.231 409.304L490.588 405.577L473.462 394.75L475.338 391.782ZM478.074 407.104L466.126 406.353L468.264 402.972L480.151 403.819L478.074 407.104Z" fill="#3A5FCD"/>
<path d="M459.739 433.62C457.784 432.086 456.383 430.41 455.537 428.591C454.697 426.777 454.388 424.951 454.608 423.111C454.829 421.282 455.559 419.578 456.798 417.998C458.042 416.412 459.528 415.291 461.256 414.634C462.985 413.988 464.834 413.859 466.802 414.247C468.77 414.635 470.728 415.594 472.678 417.122C474.633 418.656 476.03 420.33 476.87 422.144C477.716 423.962 478.028 425.786 477.807 427.615C477.587 429.455 476.855 431.167 475.611 432.753C474.372 434.333 472.888 435.446 471.159 436.092C469.43 436.749 467.582 436.883 465.614 436.495C463.653 436.112 461.694 435.153 459.739 433.62ZM461.885 430.884C463.375 432.052 464.819 432.795 466.217 433.112C467.617 433.439 468.906 433.391 470.085 432.968C471.265 432.555 472.267 431.825 473.09 430.775C473.917 429.72 474.391 428.57 474.51 427.326C474.635 426.086 474.375 424.822 473.728 423.535C473.083 422.259 472.015 421.036 470.525 419.867C469.034 418.699 467.59 417.951 466.19 417.623C464.792 417.307 463.503 417.355 462.323 417.767C461.148 418.184 460.147 418.92 459.32 419.976C458.497 421.025 458.023 422.169 457.897 423.409C457.773 424.66 458.034 425.923 458.679 427.2C459.326 428.487 460.394 429.715 461.885 430.884Z" fill="#3A5FCD"/>
<path d="M446.584 430.622L463.408 446.702L460.982 449.24L446.343 435.249L439.057 442.872L436.872 440.784L446.584 430.622Z" fill="#3A5FCD"/>
<path d="M431.983 445.335L447.349 462.814L444.712 465.132L431.341 449.924L423.422 456.887L421.426 454.617L431.983 445.335Z" fill="#3A5FCD"/>
<path d="M400.176 470.003L406.5 465.908L419.15 485.442L412.626 489.667C410.712 490.907 408.814 491.58 406.934 491.687C405.059 491.801 403.284 491.367 401.609 490.384C399.933 489.412 398.438 487.911 397.124 485.883C395.806 483.848 395.046 481.858 394.843 479.914C394.633 477.974 394.973 476.157 395.861 474.462C396.754 472.774 398.192 471.288 400.176 470.003ZM405.22 470.392L402.006 472.473C400.518 473.437 399.462 474.518 398.839 475.715C398.22 476.92 398.011 478.214 398.213 479.6C398.42 480.991 399.023 482.46 400.024 484.005C401.016 485.538 402.103 486.68 403.285 487.431C404.46 488.186 405.706 488.529 407.025 488.461C408.343 488.392 409.715 487.897 411.139 486.975L414.535 484.776L405.22 470.392Z" fill="#3A5FCD"/>
<path d="M372.448 498.643C371.327 496.426 370.769 494.314 370.774 492.308C370.782 490.309 371.276 488.523 372.255 486.95C373.231 485.388 374.615 484.154 376.407 483.248C378.205 482.339 380.026 481.954 381.87 482.092C383.71 482.239 385.44 482.906 387.057 484.092C388.675 485.278 390.043 486.976 391.16 489.187C392.281 491.405 392.837 493.513 392.829 495.512C392.824 497.518 392.333 499.302 391.357 500.865C390.378 502.437 388.989 503.678 387.191 504.587C385.399 505.493 383.583 505.871 381.743 505.723C379.899 505.586 378.168 504.924 376.551 503.738C374.936 502.559 373.569 500.861 372.448 498.643ZM375.551 497.075C376.406 498.765 377.399 500.05 378.531 500.93C379.659 501.819 380.847 502.322 382.095 502.439C383.338 502.566 384.555 502.328 385.745 501.727C386.942 501.122 387.858 500.282 388.494 499.205C389.133 498.135 389.433 496.88 389.393 495.44C389.349 494.011 388.901 492.451 388.046 490.76C387.192 489.07 386.201 487.78 385.072 486.89C383.94 486.011 382.752 485.508 381.508 485.381C380.268 485.261 379.049 485.503 377.852 486.108C376.662 486.71 375.748 487.545 375.108 488.615C374.466 489.695 374.166 490.95 374.21 492.38C374.25 493.82 374.697 495.385 375.551 497.075Z" fill="#3A5FCD"/>
<path d="M357.739 492.038L371.718 511.732L368.245 512.987L357.856 497.578L357.653 497.651L359.342 516.204L355.901 517.447L345.337 502.089L345.134 502.163L347.009 520.66L343.525 521.919L341.698 497.834L345.021 496.633L355.551 511.363L355.722 511.301L354.405 493.243L357.739 492.038Z" fill="#3A5FCD"/>
<path d="M318.582 527.596L313.337 504.922L316.481 504.194L331.853 518.157L332.063 518.109L328.217 501.48L331.638 500.688L336.883 523.362L333.716 524.095L318.328 510.112L318.118 510.161L321.97 526.812L318.582 527.596Z" fill="#3A5FCD"/>
<path d="M289.506 512.142C290.42 512.065 291.273 512.217 292.065 512.598C292.858 512.987 293.513 513.54 294.03 514.257C294.54 514.974 294.833 515.789 294.91 516.702C294.988 517.623 294.836 518.476 294.454 519.261C294.065 520.055 293.512 520.706 292.795 521.215C292.078 521.732 291.263 522.029 290.35 522.106C289.429 522.184 288.575 522.028 287.79 521.639C286.997 521.257 286.346 520.708 285.837 519.991C285.321 519.282 285.024 518.467 284.946 517.546C284.868 516.632 285.024 515.779 285.413 514.986C285.795 514.193 286.344 513.539 287.06 513.022C287.77 512.513 288.585 512.22 289.506 512.142Z" fill="#3A5FCD"/>
</svg>
