<svg width="100" height="80" viewBox="0 0 100 80" fill="none" xmlns="http://www.w3.org/2000/svg">
<g clip-path="url(#clip0_20_102)">
<path d="M31.25 0C26.4687 0 22.5 8.54687 22.5 13.4531V30.0781L1.21875 42.8594C0.453125 43.3125 0 44.125 0 45V55C0 55.7969 0.375 56.5312 1 57C1.625 57.4687 2.45312 57.6094 3.20312 57.3906L22.4844 51.6094V64.2969L14.6719 70.5469C14.0781 71.0156 13.7344 71.7344 13.7344 72.5V77.5C13.7344 78.2969 14.125 79.0625 14.7656 79.5312C15.4062 80 16.25 80.125 17.0156 79.875L31.25 75.1406L45.375 79.8438C45.125 79.1094 45 78.3125 45 77.5V72.4062C42.1562 70.7656 40.2031 67.7656 40.0156 64.3125L40 64.2969V63.75V50.8594V28.75V28.5781V13.4531C40 8.54687 36.1719 0 31.25 0ZM45 27.5V62.5C45 65.7656 47.0937 68.5469 50 69.5781V76.25C50 78.3281 51.6719 80 53.75 80H56.25C58.3281 80 60 78.3281 60 76.25V70H85V76.25C85 78.3281 86.6719 80 88.75 80H91.25C93.3281 80 95 78.3281 95 76.25V69.5781C97.9063 68.5469 100 65.7656 100 62.5V27.5C100 23.3594 96.6406 20 92.5 20H52.5C48.3594 20 45 23.3594 45 27.5ZM57.4687 39.7969C57.9844 38.4375 59.2187 37.5 60.6719 37.5H84.3281C85.7656 37.5 87.0156 38.4375 87.5313 39.7969L90 47.5H55L57.4687 39.7969ZM88.75 55C89.2425 55 89.7301 55.097 90.1851 55.2855C90.64 55.4739 91.0534 55.7501 91.4017 56.0984C91.7499 56.4466 92.0261 56.86 92.2145 57.3149C92.403 57.7699 92.5 58.2575 92.5 58.75C92.5 59.2425 92.403 59.7301 92.2145 60.1851C92.0261 60.64 91.7499 61.0534 91.4017 61.4016C91.0534 61.7499 90.64 62.0261 90.1851 62.2145C89.7301 62.403 89.2425 62.5 88.75 62.5C88.2575 62.5 87.7699 62.403 87.3149 62.2145C86.86 62.0261 86.4466 61.7499 86.0983 61.4016C85.7501 61.0534 85.4739 60.64 85.2855 60.1851C85.097 59.7301 85 59.2425 85 58.75C85 58.2575 85.097 57.7699 85.2855 57.3149C85.4739 56.86 85.7501 56.4466 86.0983 56.0984C86.4466 55.7501 86.86 55.4739 87.3149 55.2855C87.7699 55.097 88.2575 55 88.75 55ZM52.5 58.75C52.5 57.7554 52.8951 56.8016 53.5984 56.0984C54.3016 55.3951 55.2554 55 56.25 55C57.2446 55 58.1984 55.3951 58.9016 56.0984C59.6049 56.8016 60 57.7554 60 58.75C60 59.7446 59.6049 60.6984 58.9016 61.4016C58.1984 62.1049 57.2446 62.5 56.25 62.5C55.2554 62.5 54.3016 62.1049 53.5984 61.4016C52.8951 60.6984 52.5 59.7446 52.5 58.75Z" fill="#333333"/>
</g>
<defs>
<clipPath id="clip0_20_102">
<rect width="100" height="80" fill="white"/>
</clipPath>
</defs>
</svg>
